<svg class="animated" id="freepik_stories-game-analytics" xmlns="http://www.w3.org/2000/svg" viewBox="0 0 500 500" version="1.1" xmlns:xlink="http://www.w3.org/1999/xlink" xmlns:svgjs="http://svgjs.com/svgjs"><style>svg#freepik_stories-game-analytics:not(.animated) .animable {opacity: 0;}svg#freepik_stories-game-analytics.animated #freepik--Character--inject-33 {animation: 1.2s 1 forwards ease-in slideLeft,3s Infinite  linear floating;animation-delay: 0.0s,1.2s;}            @keyframes slideLeft {                0% {                    opacity: 0;                    transform: translateX(-30px);                }                100% {                    opacity: 1;                    transform: translateX(0);                }            }                    @keyframes floating {                0% {                    opacity: 1;                    transform: translateY(0px);                }                50% {                    transform: translateY(-10px);                }                100% {                    opacity: 1;                    transform: translateY(0px);                }            }        </style><g id="freepik--background-complete--inject-33" class="animable" style="transform-origin: 242.602px 254.855px;"><path d="M316.84,189.57l.25.87a3.66,3.66,0,0,0,2.3,2.5l1.13.38a.4.4,0,0,1,0,.75l-1.08.37a3.69,3.69,0,0,0-2.29,2.49l-.26.89a.35.35,0,0,1-.68,0l-.3-1a3.69,3.69,0,0,0-2.28-2.4l-1.21-.41a.4.4,0,0,1,0-.74l1.16-.4a3.68,3.68,0,0,0,2.27-2.39l.31-1A.35.35,0,0,1,316.84,189.57Z" style="fill: rgb(224, 224, 224); transform-origin: 316.476px 193.666px;" id="elfyyvrvnlgip" class="animable"></path><path d="M147.05,93l-2.52-.61a7.15,7.15,0,0,0-3.41,0l-3,.72A7.19,7.19,0,0,1,134.4,93l-1.88-.56a7.28,7.28,0,0,0-4.59.17l-.3.11a7.18,7.18,0,0,1-4.44.21l-2.36-.64a7.21,7.21,0,0,0-3.91,0l-1.82.53a7.22,7.22,0,0,1-4.7-.23l-.94-.38a7.21,7.21,0,0,0-5.42,0l-.43.17a2,2,0,0,1-2.73-1.83V61.08A24.22,24.22,0,0,1,125.1,36.87h0a24.21,24.21,0,0,1,24.22,24.21V91.21A1.83,1.83,0,0,1,147.05,93Z" style="fill: rgb(224, 224, 224); transform-origin: 125.1px 65.0865px;" id="eldbdu66jd0m7" class="animable"></path><circle cx="113.89" cy="59.83" r="3.41" style="fill: rgb(255, 255, 255); transform-origin: 113.89px 59.83px;" id="el3gj19qwlnv8" class="animable"></circle><circle cx="135.82" cy="59.83" r="3.41" style="fill: rgb(255, 255, 255); transform-origin: 135.82px 59.83px;" id="eluwvhfz588t8" class="animable"></circle><path d="M122.39,60.41a3.41,3.41,0,0,0,6.82,0Z" style="fill: rgb(255, 255, 255); transform-origin: 125.8px 62.115px;" id="elim8jylfcpj8" class="animable"></path><path d="M118.28,118.28l.68,2.35a9.88,9.88,0,0,0,6.19,6.72l3,1a1.08,1.08,0,0,1,0,2l-2.93,1a9.88,9.88,0,0,0-6.15,6.71l-.69,2.37a.94.94,0,0,1-1.83,0l-.82-2.59a9.87,9.87,0,0,0-6.13-6.45l-3.24-1.09a1.08,1.08,0,0,1,0-2l3.13-1.07a9.85,9.85,0,0,0,6.09-6.44l.83-2.61A.94.94,0,0,1,118.28,118.28Z" style="fill: rgb(224, 224, 224); transform-origin: 117.255px 129.264px;" id="elisp3485d04" class="animable"></path><path d="M58.45,74.69l.39,1.36a5.73,5.73,0,0,0,3.59,3.89l1.76.6a.63.63,0,0,1,0,1.16l-1.69.58a5.71,5.71,0,0,0-3.56,3.88l-.4,1.38a.54.54,0,0,1-1.06,0L57,86.06a5.7,5.7,0,0,0-3.54-3.74l-1.88-.63a.62.62,0,0,1,0-1.16l1.81-.62a5.69,5.69,0,0,0,3.52-3.72l.48-1.51A.55.55,0,0,1,58.45,74.69Z" style="fill: rgb(224, 224, 224); transform-origin: 57.8766px 81.1292px;" id="eliuyod6agims" class="animable"></path><path d="M459.78,209.89l.4,1.36a5.73,5.73,0,0,0,3.58,3.89l1.76.59a.63.63,0,0,1,0,1.16l-1.69.59a5.69,5.69,0,0,0-3.56,3.88l-.4,1.37a.55.55,0,0,1-1.06,0l-.47-1.5a5.7,5.7,0,0,0-3.55-3.73l-1.88-.63a.63.63,0,0,1,0-1.16l1.81-.62a5.7,5.7,0,0,0,3.52-3.73l.48-1.51A.55.55,0,0,1,459.78,209.89Z" style="fill: rgb(224, 224, 224); transform-origin: 459.215px 216.299px;" id="elzmvvfg30pbd" class="animable"></path><path d="M183.44,59.36l.28,1a4.09,4.09,0,0,0,2.56,2.78l1.26.43a.45.45,0,0,1,0,.83l-1.21.41a4.1,4.1,0,0,0-2.54,2.78l-.29,1a.38.38,0,0,1-.75,0l-.34-1.07a4.07,4.07,0,0,0-2.54-2.66l-1.34-.46a.44.44,0,0,1,0-.83l1.29-.44a4.08,4.08,0,0,0,2.52-2.66l.34-1.08A.39.39,0,0,1,183.44,59.36Z" style="fill: rgb(224, 224, 224); transform-origin: 183.026px 63.99px;" id="el0u7guqomaqj" class="animable"></path><path d="M58.26,135.19l.26.91a3.84,3.84,0,0,0,2.4,2.6l1.17.4a.41.41,0,0,1,0,.77l-1.13.39a3.79,3.79,0,0,0-2.37,2.59l-.27.91a.37.37,0,0,1-.71,0l-.31-1a3.78,3.78,0,0,0-2.37-2.49l-1.25-.43a.42.42,0,0,1,0-.77l1.21-.41a3.8,3.8,0,0,0,2.35-2.49l.33-1A.36.36,0,0,1,58.26,135.19Z" style="fill: rgb(224, 224, 224); transform-origin: 57.8934px 139.474px;" id="eldojc2q14mbv" class="animable"></path><path d="M390.44,314.68l.17.56a2.36,2.36,0,0,0,1.49,1.62l.73.25a.26.26,0,0,1,0,.48l-.7.25a2.38,2.38,0,0,0-1.49,1.61l-.16.58a.23.23,0,0,1-.44,0l-.2-.62a2.4,2.4,0,0,0-1.48-1.56l-.78-.26a.26.26,0,0,1,0-.48l.75-.26a2.37,2.37,0,0,0,1.47-1.55l.2-.63A.23.23,0,0,1,390.44,314.68Z" style="fill: rgb(224, 224, 224); transform-origin: 390.205px 317.352px;" id="el9u0bagmtx0l" class="animable"></path><path d="M421.64,222.42l-1.92-.47a5.4,5.4,0,0,0-2.59,0l-2.26.55a5.58,5.58,0,0,1-2.84-.07L410.6,222a5.49,5.49,0,0,0-3.49.13l-.22.09a5.58,5.58,0,0,1-3.38.16l-1.79-.49a5.45,5.45,0,0,0-3,0l-1.38.4a5.46,5.46,0,0,1-3.57-.17l-.71-.29a5.49,5.49,0,0,0-4.12,0l-.33.14a1.51,1.51,0,0,1-2.07-1.4V198.19A18.39,18.39,0,0,1,405,179.8h0a18.39,18.39,0,0,1,18.39,18.39v22.88A1.39,1.39,0,0,1,421.64,222.42Z" style="fill: rgb(224, 224, 224); transform-origin: 404.965px 201.225px;" id="elp7s21n2u3yo" class="animable"></path><path d="M399,197.24a2.6,2.6,0,1,1-2.59-2.59A2.59,2.59,0,0,1,399,197.24Z" style="fill: rgb(255, 255, 255); transform-origin: 396.4px 197.25px;" id="el0kmnqsie6hj" class="animable"></path><circle cx="413.11" cy="197.24" r="2.59" style="fill: rgb(255, 255, 255); transform-origin: 413.11px 197.24px;" id="elabazy2g555" class="animable"></circle><path d="M402.91,197.68a2.59,2.59,0,1,0,5.18,0Z" style="fill: rgb(255, 255, 255); transform-origin: 405.5px 198.975px;" id="el9ymwmyr38uo" class="animable"></path><path d="M457.07,164.47l-1.31-.32a3.74,3.74,0,0,0-1.76,0l-1.54.37a3.75,3.75,0,0,1-1.94-.05l-1-.29a3.73,3.73,0,0,0-2.38.09l-.15.06a3.77,3.77,0,0,1-2.3.11l-1.22-.34a3.75,3.75,0,0,0-2,0l-1,.28a3.69,3.69,0,0,1-2.43-.13l-.49-.19a3.72,3.72,0,0,0-2.8,0l-.22.09a1,1,0,0,1-1.42-1V148a12.55,12.55,0,0,1,12.54-12.54h0A12.54,12.54,0,0,1,458.24,148v15.59A1,1,0,0,1,457.07,164.47Z" style="fill: rgb(224, 224, 224); transform-origin: 445.673px 150.042px;" id="ele93caae6pgg" class="animable"></path><circle cx="439.9" cy="147.31" r="1.77" style="fill: rgb(255, 255, 255); transform-origin: 439.9px 147.31px;" id="el9ypc08ij2h" class="animable"></circle><circle cx="451.26" cy="147.31" r="1.77" style="fill: rgb(255, 255, 255); transform-origin: 451.26px 147.31px;" id="elt225n2dx1cd" class="animable"></circle><path d="M444.31,147.61a1.77,1.77,0,1,0,3.53,0Z" style="fill: rgb(255, 255, 255); transform-origin: 446.075px 148.562px;" id="elwtydkmf5r5" class="animable"></path><path d="M393.25,138.27l.16.56a2.38,2.38,0,0,0,1.49,1.62l.74.25a.26.26,0,0,1,0,.48l-.71.24a2.41,2.41,0,0,0-1.48,1.62l-.17.57a.23.23,0,0,1-.44,0l-.2-.62a2.34,2.34,0,0,0-1.47-1.56l-.78-.26a.26.26,0,0,1,0-.48l.76-.26a2.39,2.39,0,0,0,1.47-1.55l.2-.63A.23.23,0,0,1,393.25,138.27Z" style="fill: rgb(224, 224, 224); transform-origin: 393.015px 140.942px;" id="elu1j139bu5pj" class="animable"></path><path d="M435.58,261.82l.46,1.59a6.66,6.66,0,0,0,4.19,4.54l2.06.7a.73.73,0,0,1,0,1.36l-2,.68a6.68,6.68,0,0,0-4.16,4.54l-.47,1.6a.64.64,0,0,1-1.24,0l-.55-1.75a6.67,6.67,0,0,0-4.15-4.36l-2.2-.74a.73.73,0,0,1,0-1.36l2.12-.72a6.67,6.67,0,0,0,4.12-4.36l.56-1.76A.64.64,0,0,1,435.58,261.82Z" style="fill: rgb(224, 224, 224); transform-origin: 434.905px 269.291px;" id="el703dpb4n15r" class="animable"></path><path d="M443.41,52.47l.46,1.59a6.72,6.72,0,0,0,4.19,4.55l2.06.7a.73.73,0,0,1,0,1.35l-2,.68A6.73,6.73,0,0,0,444,65.88l-.47,1.61a.63.63,0,0,1-1.23,0l-.56-1.75a6.71,6.71,0,0,0-4.15-4.37l-2.2-.74a.73.73,0,0,1,0-1.35l2.12-.73a6.66,6.66,0,0,0,4.12-4.35l.56-1.77A.64.64,0,0,1,443.41,52.47Z" style="fill: rgb(224, 224, 224); transform-origin: 442.755px 59.9929px;" id="el5a421lsl5yw" class="animable"></path><path d="M43.51,383.81a31.68,31.68,0,0,0-13.59-4.67c-2.22-.23-4.64-.17-6.42,1.18a1.33,1.33,0,0,0-.67,1.17,1.52,1.52,0,0,0,.63.81,19.43,19.43,0,0,0,20,1.51" style="fill: rgb(224, 224, 224); transform-origin: 33.17px 382.464px;" id="elouu0qdiutuh" class="animable"></path><path d="M43.16,383.43a66.56,66.56,0,0,1-8.78-7.72,22.27,22.27,0,0,1-5.5-10.18,4.09,4.09,0,0,1,.44-3.4c7,5.46,12.49,12.53,13.84,21.3" style="fill: rgb(224, 224, 224); transform-origin: 35.9264px 372.78px;" id="el008a1wf20eq5" class="animable"></path><path d="M43.44,383.76a31.63,31.63,0,0,1,.16-11.52,15.58,15.58,0,0,1,6.14-9.51c1.21,2.83.69,6.08-.17,9a44,44,0,0,1-6.08,12.81" style="fill: rgb(224, 224, 224); transform-origin: 46.72px 373.635px;" id="elqd1rv0fmqlq" class="animable"></path><path d="M50.29,396.05c-4.16.5-7.78,2.7-10.89,5.51a20.68,20.68,0,0,0-6.24,10.7c4.09-.25,7.55-3.13,10.06-6.36s4.26-6.77,7-9.79" style="fill: rgb(224, 224, 224); transform-origin: 41.725px 404.155px;" id="el44kxbckf13v" class="animable"></path><path d="M51.78,398a26.86,26.86,0,0,1,3.11-25.42c2.37,8.44,1.5,18-3.11,25.42" style="fill: rgb(224, 224, 224); transform-origin: 53.0392px 385.29px;" id="el0zqokifoejnh" class="animable"></path><path d="M60.84,408.8a19.45,19.45,0,0,0-18.58,10.7c-.23.46-.43,1-.12,1.45a1.37,1.37,0,0,0,1.23.37c3.66-.24,6.91-2.44,9.58-4.95s5-5.41,8-7.58" style="fill: rgb(224, 224, 224); transform-origin: 51.4655px 415.055px;" id="eltpg3ecgbjec" class="animable"></path><path d="M60.55,408.21a34.63,34.63,0,0,1-.34-19.33c.68-2.48,1.82-5.1,4.12-6.27a.63.63,0,0,1,1,.35,11.69,11.69,0,0,1,1,5.55,35.56,35.56,0,0,1-.87,5.61c-.73,3.43-1.11,7.12-3,10.08a20.5,20.5,0,0,0-1.2,2.21c-.36.75-.36,1-.69,1.62" style="fill: rgb(224, 224, 224); transform-origin: 62.6767px 395.343px;" id="elxna6m2hj8y" class="animable"></path><path d="M84.54,411.79c-1.78-6.76.11-15,4.37-20.5.31-.4.72-.84,1.24-.79.78.07,1,1.11.95,1.9a37.07,37.07,0,0,1-6.56,19.39" style="fill: rgb(224, 224, 224); transform-origin: 87.4897px 401.143px;" id="el2qd27slo5vu" class="animable"></path><path d="M86.7,413.27a29.82,29.82,0,0,0,24.46-5,19.76,19.76,0,0,0-13.24-1.62c-4.42,1-8.47,3-11.22,6.6" style="fill: rgb(224, 224, 224); transform-origin: 98.93px 410.11px;" id="elcpwyvmiuft" class="animable"></path><path d="M88.52,408.77c4.6-7.5,13.42-12.4,22.2-12.84-1,3.57-3.94,6.35-7.26,8a40.28,40.28,0,0,1-10.65,3.11c-1.42.28-3.37.58-4.29,1.7" style="fill: rgb(224, 224, 224); transform-origin: 99.62px 402.35px;" id="elrja2afq9d7h" class="animable"></path><path d="M85,386.93a64.11,64.11,0,0,0,2.84-13,21.58,21.58,0,0,0-2.59-12.86c-4.29,8.31-4.73,18-.37,26.3" style="fill: rgb(224, 224, 224); transform-origin: 84.8924px 374.22px;" id="el1wys4inh542" class="animable"></path><path d="M99.46,379.62c5-9.13,15.27-16.43,25.64-17.45-4,10-14.91,17.66-25.64,17.45" style="fill: rgb(224, 224, 224); transform-origin: 112.28px 370.897px;" id="elleufmthbgp" class="animable"></path><path d="M96.3,381.41c7.49,1.14,13.87,5.92,20.87,8.82a9.29,9.29,0,0,0,4.72.91,3.7,3.7,0,0,0,2.32-6.54,10.19,10.19,0,0,0-3.43-2.08c-7.63-3.17-15.81-3.25-23.84-1.33" style="fill: rgb(224, 224, 224); transform-origin: 110.919px 385.536px;" id="elc44zo3gv5y8" class="animable"></path><path d="M92,386.66c1.7.49,2.28,1.37,3.62,2.51a39,39,0,0,0,15.83,8.13c.61.15,1.4.21,1.7-.33s-.07-1.06-.41-1.48a21.75,21.75,0,0,0-9.56-6.49c-3.65-1.36-6.82-3-11.18-2.65" style="fill: rgb(224, 224, 224); transform-origin: 102.63px 391.853px;" id="elas40tdpk2ui" class="animable"></path><path d="M87.07,354.92a30,30,0,0,0,23,7.82,1.56,1.56,0,0,0,1-.38c.58-.62-.11-1.6-.78-2.12-6.76-5.27-14.94-7.45-23.23-5.32" style="fill: rgb(224, 224, 224); transform-origin: 99.1738px 358.485px;" id="el8ubpxmftiuu" class="animable"></path><path d="M92.87,352.8a32,32,0,0,1,28.66-4.73,22.78,22.78,0,0,1-13.66,6,43.4,43.4,0,0,1-15-1.27" style="fill: rgb(224, 224, 224); transform-origin: 107.2px 350.407px;" id="el8l963whnkcb" class="animable"></path><path d="M90.56,338.22c-.66-6.74-.23-12.06-.7-18.84,0-.54-.15-1.19-.66-1.38-.7-.27-1.29.59-1.52,1.31a21.6,21.6,0,0,0,2.87,18.76" style="fill: rgb(224, 224, 224); transform-origin: 88.6279px 328.085px;" id="elq52o51qdswc" class="animable"></path><path d="M90.08,339a39.35,39.35,0,0,0,11.16-10.85c2.21-3,4.07-6.63,3.57-10.34a10.72,10.72,0,0,0-8.06,4,22.56,22.56,0,0,0-4.1,8.26c-.9,3-1.52,6-2.57,8.93" style="fill: rgb(224, 224, 224); transform-origin: 97.486px 328.405px;" id="elwc0ncqvion9" class="animable"></path><path d="M101.05,335.91a89.84,89.84,0,0,0,27.48-16.2c-3.28-1.32-7-.53-10.32.8a32.48,32.48,0,0,0-17.3,15.33" style="fill: rgb(224, 224, 224); transform-origin: 114.72px 327.471px;" id="elbltkjwdhn98" class="animable"></path><path d="M93.16,342.65c5.08.55,10.23.92,15.26.07s9.62-2.78,14.25-4.73a1.63,1.63,0,0,0,1-.73,1.1,1.1,0,0,0-.34-1.22,3,3,0,0,0-1.22-.57c-5-1.41-10.45-.75-15.39.92a71.78,71.78,0,0,0-13.52,6.26" style="fill: rgb(224, 224, 224); transform-origin: 108.447px 338.962px;" id="eln2gqxz7tsd7" class="animable"></path><path d="M64.2,355.16c-3.46-7-3.24-15.14-.25-22.34,2.11,3.2,2.36,7.29,2,11.1s-1.55,7.75-1.62,11.58" style="fill: rgb(224, 224, 224); transform-origin: 63.8714px 344.16px;" id="elabbwucpttxi" class="animable"></path><path d="M50.37,348.18A31.19,31.19,0,0,0,27.22,358a21.59,21.59,0,0,0,12.68-2.35,63.92,63.92,0,0,0,10.86-7.27" style="fill: rgb(224, 224, 224); transform-origin: 38.99px 353.166px;" id="elhkeg427gd9h" class="animable"></path><path d="M41.08,345.07c-4.23-.34-8.3-.86-12.36.38a14.85,14.85,0,0,0-9.42,8,22.34,22.34,0,0,0,11.59-2.19,66.35,66.35,0,0,0,10.19-6.18" style="fill: rgb(224, 224, 224); transform-origin: 30.19px 349.094px;" id="eltv35nuwf42l" class="animable"></path><path d="M54.84,345.22c-3.8-2.5-7.71-5-12.13-6.07s-9.56-.26-12.65,3.07c3.58,2.11,7.93,2.35,12.09,2.35s9.25-.05,13.17,1.34" style="fill: rgb(224, 224, 224); transform-origin: 42.69px 342.309px;" id="el0w7r8621mggn" class="animable"></path><path d="M54.86,345.42c-6.5-6.39-9-17.86-6.35-26.58a40.48,40.48,0,0,1,6.35,26.58" style="fill: rgb(224, 224, 224); transform-origin: 51.2853px 332.13px;" id="elbn66m67rgat" class="animable"></path><path d="M72.74,327.33c1.23-2.85,2.09-5.84,3.19-8.74a25.29,25.29,0,0,1,4.54-8.07,12,12,0,0,1,8.06-4.17,32.42,32.42,0,0,1-15.63,21" style="fill: rgb(224, 224, 224); transform-origin: 80.635px 316.85px;" id="elrl4lzvld1fe" class="animable"></path><path d="M69.5,331.1c-2-2.8-4.37-6.59-7.12-8.67s-6.33-3.35-9.69-2.55A22.58,22.58,0,0,0,69.5,331.1" style="fill: rgb(224, 224, 224); transform-origin: 61.095px 325.369px;" id="elqr8htk6e168" class="animable"></path><path d="M70.15,327.56a48.33,48.33,0,0,1-3.21-10.38,16.26,16.26,0,0,1,1.63-10.57c3.57,6.75,4.72,14,1.76,21" style="fill: rgb(224, 224, 224); transform-origin: 69.3446px 317.11px;" id="el4aqhns82nk2" class="animable"></path><path d="M72.77,306.61c2-6.68,8.15-11.61,14.76-13.87a5.48,5.48,0,0,1,2.59-.38A2.23,2.23,0,0,1,92,294c.24,1.13-.7,2.15-1.58,2.91a50.24,50.24,0,0,1-17.67,9.75" style="fill: rgb(224, 224, 224); transform-origin: 82.394px 299.498px;" id="el4b3w9wagx5m" class="animable"></path><path d="M72.85,301.15c.25-4.32.52-8.69,1.92-12.78s4.11-7.91,8-9.7c.67,4.35-1.25,8.69-3.57,12.43s-5.11,7.29-6.5,11.47" style="fill: rgb(224, 224, 224); transform-origin: 77.8026px 290.62px;" id="eluyufru3aew" class="animable"></path><path d="M72.74,304.11c-1.67-4.87-1.84-11.06-4.76-15.31-2-3-5.31-5-7.07-8.13a12.41,12.41,0,0,0,.41,9.23,26.73,26.73,0,0,0,5.4,7.73c2.16,2.31,4,4,6,6.48" style="fill: rgb(224, 224, 224); transform-origin: 66.4759px 292.39px;" id="elp30knh6zrq" class="animable"></path><path d="M72.77,447.64c-.13,0-.24-32.51-.25-72.61s.09-72.62.22-72.62S73,334.92,73,375,72.9,447.64,72.77,447.64Z" style="fill: rgb(224, 224, 224); transform-origin: 72.7597px 375.025px;" id="el5poyitvaswg" class="animable"></path><path d="M101.18,350.25a7.1,7.1,0,0,1-1.22.46l-3.36,1.13c-2.84,1-6.74,2.37-11,4.1s-8.14,3.26-10.39,5.21a7.68,7.68,0,0,0-2.09,2.76c-.32.76-.38,1.23-.42,1.22s0-.12,0-.34a5.92,5.92,0,0,1,.24-1,7.38,7.38,0,0,1,2-2.94,18.08,18.08,0,0,1,4.51-2.8c1.8-.84,3.8-1.72,5.92-2.59,4.24-1.74,8.17-3.1,11-4,1.44-.45,2.61-.78,3.42-1A7,7,0,0,1,101.18,350.25Z" style="fill: rgb(224, 224, 224); transform-origin: 86.9311px 357.69px;" id="elcwpbmcytuh" class="animable"></path><path d="M110.5,327.37s-.11.14-.35.37l-1,1-3.89,3.54-13,11.54c-5.06,4.5-9.43,8.81-12.46,12.05-1.52,1.62-2.71,3-3.53,3.89l-.94,1.08a2.71,2.71,0,0,1-.35.36,1.82,1.82,0,0,1,.28-.42c.19-.26.48-.65.87-1.13.77-1,1.93-2.36,3.43-4a163.69,163.69,0,0,1,12.39-12.17C97,339,101.64,334.92,105,332l4-3.43,1.1-.91A2.2,2.2,0,0,1,110.5,327.37Z" style="fill: rgb(224, 224, 224); transform-origin: 92.74px 344.285px;" id="elp63fezl52km" class="animable"></path><path d="M86.79,348.38c-.13-.06.92-2.5,2-5.59s1.56-5.69,1.7-5.67a19.09,19.09,0,0,1-1.26,5.82,37.84,37.84,0,0,1-1.57,3.91A5.75,5.75,0,0,1,86.79,348.38Z" style="fill: rgb(224, 224, 224); transform-origin: 88.6345px 342.75px;" id="eljpfl9zkkyc8" class="animable"></path><path d="M72.8,368.06a6.8,6.8,0,0,1-.78-.91l-2-2.56c-1.67-2.17-4-5.16-6.59-8.44s-5-6.21-6.73-8.34l-2-2.53a5.82,5.82,0,0,1-.7-1,6.19,6.19,0,0,1,.84.85c.52.56,1.26,1.39,2.16,2.43,1.8,2.07,4.23,5,6.84,8.26s4.88,6.31,6.49,8.53c.81,1.11,1.45,2,1.88,2.65A5.64,5.64,0,0,1,72.8,368.06Z" style="fill: rgb(224, 224, 224); transform-origin: 63.4px 356.17px;" id="elw55f7krncc" class="animable"></path><path d="M66.57,360.06A11.55,11.55,0,0,1,64,355.18a14,14,0,0,1-.59-4.93l.21,0c-.09.37-.16.57-.2.57s0-.22,0-.61l.21,0a22.9,22.9,0,0,0,.83,4.79A37.17,37.17,0,0,0,66.57,360.06Z" style="fill: rgb(224, 224, 224); transform-origin: 64.9778px 355.135px;" id="el5sssuys8aco" class="animable"></path><path d="M58.53,349.94a9.1,9.1,0,0,0-1.82-1.05,12.07,12.07,0,0,0-5.06-.41,31.14,31.14,0,0,0-5.1.83,18.27,18.27,0,0,1-2.09.5,7.08,7.08,0,0,1,2-.82,23.13,23.13,0,0,1,5.14-1,11.12,11.12,0,0,1,5.22.57A3.22,3.22,0,0,1,58.53,349.94Z" style="fill: rgb(224, 224, 224); transform-origin: 51.495px 348.918px;" id="el3pmub0h1ia5" class="animable"></path><path d="M56.62,347.49c0,.08-1.06-.42-2.79-1a28,28,0,0,0-14.07-1.08c-1.8.33-2.88.66-2.91.59s.25-.15.74-.32a17.24,17.24,0,0,1,2.11-.59,24.64,24.64,0,0,1,7.2-.51A25,25,0,0,1,54,346.16a17.66,17.66,0,0,1,2,.91C56.39,347.31,56.64,347.46,56.62,347.49Z" style="fill: rgb(224, 224, 224); transform-origin: 46.7345px 346.003px;" id="elpkuty3o5xos" class="animable"></path><path d="M72.74,337.12a56,56,0,0,1-2-7.07,58.43,58.43,0,0,1-1.58-7.19,57.11,57.11,0,0,1,2,7.08A56.35,56.35,0,0,1,72.74,337.12Z" style="fill: rgb(224, 224, 224); transform-origin: 70.95px 329.99px;" id="elfgih0tqplrq" class="animable"></path><path d="M72.87,337.12a34.7,34.7,0,0,0-2.26-4.23,18.74,18.74,0,0,0-3.32-3.43,3.14,3.14,0,0,1,1.28.66,10.56,10.56,0,0,1,2.43,2.5A9.42,9.42,0,0,1,72.87,337.12Z" style="fill: rgb(224, 224, 224); transform-origin: 70.08px 333.29px;" id="elti0ddmaf8of" class="animable"></path><path d="M72.77,430.31s-.14-.79-.51-2.17a30.45,30.45,0,0,0-2.17-5.62,77.71,77.71,0,0,0-11.53-16.24c-2.57-2.94-5.07-5.72-7.19-8.37a58.9,58.9,0,0,1-5.14-7.42,35.84,35.84,0,0,1-2.6-5.5c-.23-.68-.41-1.21-.51-1.58a3,3,0,0,1-.13-.56s.28.75.81,2.07a39.8,39.8,0,0,0,2.72,5.4,61.57,61.57,0,0,0,5.19,7.31c2.13,2.63,4.63,5.39,7.2,8.34,5.21,5.84,9.29,11.73,11.48,16.4a28,28,0,0,1,2,5.73,13.91,13.91,0,0,1,.28,1.63A2.29,2.29,0,0,1,72.77,430.31Z" style="fill: rgb(224, 224, 224); transform-origin: 57.88px 406.58px;" id="elmz2yslk204d" class="animable"></path><path d="M98.45,401.31a14.38,14.38,0,0,1-1.35.75,29.56,29.56,0,0,0-3.49,2.31A39.45,39.45,0,0,0,89,408.55c-1.61,1.7-3.27,3.67-5,5.79-3.38,4.24-6.54,8-8.44,11-1,1.49-1.66,2.74-2.12,3.62a11,11,0,0,1-.74,1.36,1.53,1.53,0,0,1,.13-.39c.1-.24.23-.6.45-1.05a34.54,34.54,0,0,1,2-3.71A122.6,122.6,0,0,1,83.7,414c1.7-2.11,3.38-4.09,5-5.79a39.2,39.2,0,0,1,4.7-4.15A24.94,24.94,0,0,1,97,401.9c.44-.22.81-.36,1-.46S98.44,401.29,98.45,401.31Z" style="fill: rgb(224, 224, 224); transform-origin: 85.575px 415.813px;" id="el9hzbpzt38pn" class="animable"></path><path d="M99,410.72a21.38,21.38,0,0,1-2.85.41,36.83,36.83,0,0,0-6.74,1.33,20.21,20.21,0,0,0-6,3.17c-1.39,1.07-2,2-2.11,1.91s.11-.26.42-.65a10.06,10.06,0,0,1,1.48-1.52A18.24,18.24,0,0,1,89.22,412a30,30,0,0,1,6.85-1.21A14.49,14.49,0,0,1,99,410.72Z" style="fill: rgb(224, 224, 224); transform-origin: 90.1356px 414.111px;" id="elfqyzvcyanw" class="animable"></path><path d="M82,416.51c-.15-.09,1.13-2.05,2.12-4.68s1.16-5,1.32-5a4.59,4.59,0,0,1,0,1.53,17,17,0,0,1-.83,3.59,17.66,17.66,0,0,1-1.65,3.3A4.9,4.9,0,0,1,82,416.51Z" style="fill: rgb(224, 224, 224); transform-origin: 83.7461px 411.67px;" id="el7rcbcdcxg55" class="animable"></path><path d="M106.76,376.05a1.67,1.67,0,0,1-.45.24l-1.34.61c-.59.25-1.3.57-2.1,1s-1.74.84-2.72,1.43l-1.55.88c-.53.31-1.07.68-1.63,1-1.15.7-2.29,1.55-3.52,2.42a67.75,67.75,0,0,0-7.33,6.45,66.19,66.19,0,0,0-6.19,7.55c-.83,1.26-1.65,2.43-2.3,3.6-.34.58-.69,1.12-1,1.67l-.83,1.58c-.55,1-.94,1.95-1.33,2.76s-.69,1.54-.92,2.13L73,410.75c-.13.31-.21.47-.23.46a3.65,3.65,0,0,1,.14-.49l.48-1.39c.21-.61.48-1.34.85-2.17s.74-1.8,1.28-2.81l.8-1.61c.29-.55.63-1.1,1-1.69.65-1.18,1.45-2.37,2.28-3.64a63.47,63.47,0,0,1,6.21-7.63,62.81,62.81,0,0,1,7.42-6.47c1.24-.87,2.4-1.72,3.56-2.4.57-.35,1.11-.72,1.66-1L100,379c1-.57,1.94-1,2.76-1.37a22.15,22.15,0,0,1,2.14-.93l1.37-.52A2.48,2.48,0,0,1,106.76,376.05Z" style="fill: rgb(224, 224, 224); transform-origin: 89.765px 393.63px;" id="elmqpwc8yu0h8" class="animable"></path><path d="M86.44,389.67A3.32,3.32,0,0,1,87.56,388a7.1,7.1,0,0,1,4.5-1.73,12.27,12.27,0,0,1,4.74.93,7.12,7.12,0,0,1,1.79.87,10.11,10.11,0,0,1-1.9-.56,14.44,14.44,0,0,0-4.61-.77,7.37,7.37,0,0,0-4.3,1.51A12.23,12.23,0,0,0,86.44,389.67Z" style="fill: rgb(224, 224, 224); transform-origin: 92.515px 387.97px;" id="el94gphqr754" class="animable"></path><path d="M83.4,392.8a16.33,16.33,0,0,0,1.28-4.16,17.56,17.56,0,0,0-.28-4.34,2.83,2.83,0,0,1,.52,1.21,8.41,8.41,0,0,1,.23,3.18,8.64,8.64,0,0,1-1,3.05C83.8,392.46,83.45,392.83,83.4,392.8Z" style="fill: rgb(224, 224, 224); transform-origin: 84.3045px 388.551px;" id="elrc1u1je9yaf" class="animable"></path><path d="M50.32,435c.7,12.43,4.44,25.07,10.2,37.84h25c5.5-12.65,9-25.26,9.6-37.84Z" style="fill: rgb(224, 224, 224); transform-origin: 72.72px 453.92px;" id="el2zfm5o4y7mv" class="animable"></path><path d="M91.1,455.07c0,.13-8.24.23-18.41.23s-18.42-.1-18.42-.23,8.25-.24,18.42-.24S91.1,454.94,91.1,455.07Z" style="fill: rgb(250, 250, 250); transform-origin: 72.685px 455.065px;" id="el4dfvaimousu" class="animable"></path><path d="M90.54,459.57c0,.13-7.73.24-17.26.24S56,459.7,56,459.57s7.72-.23,17.26-.23S90.54,459.44,90.54,459.57Z" style="fill: rgb(250, 250, 250); transform-origin: 73.27px 459.575px;" id="elk6eubkv2er8" class="animable"></path><path d="M60.93,443.12a72.49,72.49,0,0,1,0,11.54,69.48,69.48,0,0,1,0-11.54Z" style="fill: rgb(250, 250, 250); transform-origin: 60.925px 448.89px;" id="el05d2ybn4gs4j" class="animable"></path><path d="M74.34,443.12a74.5,74.5,0,0,1,0,11.95,77.73,77.73,0,0,1,0-11.95Z" style="fill: rgb(250, 250, 250); transform-origin: 74.345px 449.095px;" id="elthjjk8oiro" class="animable"></path><path d="M86.94,443a80.87,80.87,0,0,1,0,12.19,77.51,77.51,0,0,1,0-12.19Z" style="fill: rgb(250, 250, 250); transform-origin: 86.935px 449.095px;" id="elxln60olu6tj" class="animable"></path><path d="M94.37,443.12c0,.13-9.67.24-21.6.24s-21.6-.11-21.6-.24,9.67-.23,21.6-.23S94.37,443,94.37,443.12Z" style="fill: rgb(250, 250, 250); transform-origin: 72.77px 443.125px;" id="eld9urki7lprm" class="animable"></path></g><g id="freepik--Floor--inject-33" class="animable" style="transform-origin: 250px 472.4px;"><path d="M481.35,472.4c0,.14-103.59.26-231.34.26s-231.36-.12-231.36-.26,103.56-.26,231.36-.26S481.35,472.26,481.35,472.4Z" style="fill: rgb(38, 50, 56); transform-origin: 250px 472.4px;" id="el3qm03irl3sl" class="animable"></path></g><g id="freepik--Lines--inject-33" class="animable" style="transform-origin: 310.68px 124.76px;"><path d="M361.56,91.56c.1.1-4.71,5.07-10.74,11.08s-11,10.82-11.1,10.72,4.7-5.07,10.74-11.09S361.46,91.46,361.56,91.56Z" style="fill: rgb(38, 50, 56); transform-origin: 350.64px 102.46px;" id="elm3ysnnjx6vi" class="animable"></path><path d="M313.26,99.6c-.14,0-.26-6.3-.26-14.07s.12-14.08.26-14.08.26,6.3.26,14.08S313.41,99.6,313.26,99.6Z" style="fill: rgb(38, 50, 56); transform-origin: 313.26px 85.525px;" id="eljn4bmkfpl2b" class="animable"></path><path d="M277.69,137.81a71.89,71.89,0,0,1-8.51.27,72.24,72.24,0,0,1-8.52-.25,67.19,67.19,0,0,1,8.52-.27A67.31,67.31,0,0,1,277.69,137.81Z" style="fill: rgb(38, 50, 56); transform-origin: 269.175px 137.817px;" id="elt5bp750qc4" class="animable"></path><circle cx="313.26" cy="71.38" r="1.44" style="fill: rgb(38, 50, 56); transform-origin: 313.26px 71.38px;" id="elmnz6iljqq2q" class="animable"></circle><circle cx="360.92" cy="92.63" r="1.44" style="fill: rgb(38, 50, 56); transform-origin: 360.92px 92.63px;" id="elvx244dlcoq" class="animable"></circle><path d="M295.14,178.14a1.44,1.44,0,1,1-1.44-1.44A1.45,1.45,0,0,1,295.14,178.14Z" style="fill: rgb(38, 50, 56); transform-origin: 293.7px 178.14px;" id="el1osabbqijxw" class="animable"></path><path d="M260.19,92.63c.09-.11,6.26,4.43,13.78,10.16s13.55,10.45,13.47,10.57-6.26-4.44-13.78-10.16S260.11,92.75,260.19,92.63Z" style="fill: rgb(38, 50, 56); transform-origin: 273.815px 102.995px;" id="elpuy7grw8zg" class="animable"></path><path d="M259,92.94a1.44,1.44,0,1,0,1.44-1.43A1.44,1.44,0,0,0,259,92.94Z" style="fill: rgb(38, 50, 56); transform-origin: 260.44px 92.95px;" id="eltxo3y3q1rfc" class="animable"></path><path d="M262.22,138.9a1.44,1.44,0,1,1,0-2A1.45,1.45,0,0,1,262.22,138.9Z" style="fill: rgb(38, 50, 56); transform-origin: 261.182px 137.9px;" id="ela2jq6b6va6g" class="animable"></path><path d="M300.13,159.29a15.75,15.75,0,0,1-.74,2.78c-.53,1.69-1.28,4-2.14,6.59s-1.7,4.87-2.35,6.53a13.79,13.79,0,0,1-1.2,2.62,19.49,19.49,0,0,1,.85-2.75c.62-1.84,1.37-4.08,2.2-6.57s1.68-4.88,2.29-6.54A15,15,0,0,1,300.13,159.29Z" style="fill: rgb(38, 50, 56); transform-origin: 296.915px 168.55px;" id="el1744ccyjcv3" class="animable"></path></g><g id="freepik--Game--inject-33" class="animable" style="transform-origin: 311.82px 130.3px;"><g id="elmxa7q3s47v"><circle cx="311.82" cy="130.3" r="25.23" style="fill: rgb(255, 255, 255); transform-origin: 311.82px 130.3px; transform: rotate(-76.86deg);" class="animable"></circle></g><path d="M337.05,130.3a3.35,3.35,0,0,1-.05-.4c0-.3-.05-.7-.08-1.2,0-.27,0-.56-.06-.88s-.11-.67-.16-1a18.63,18.63,0,0,0-.54-2.6,23.66,23.66,0,0,0-2.8-6.67,25,25,0,0,0-30.05-10.66,24.5,24.5,0,0,0-3.25,1.43,25.75,25.75,0,0,0-3.07,2,29.09,29.09,0,0,0-2.83,2.41,29.66,29.66,0,0,0-2.45,2.89,24.3,24.3,0,0,0-3.56,6.88,26.33,26.33,0,0,0-1.29,7.88,26.64,26.64,0,0,0,1.28,7.88,24.45,24.45,0,0,0,3.57,6.88,28.64,28.64,0,0,0,2.45,2.9,29.09,29.09,0,0,0,2.83,2.41,27.86,27.86,0,0,0,3.06,2,26.67,26.67,0,0,0,3.26,1.43,25.06,25.06,0,0,0,30.05-10.66,23.78,23.78,0,0,0,2.8-6.67,18.63,18.63,0,0,0,.54-2.6c.05-.38.13-.73.16-1.05s0-.62.06-.88c0-.51.06-.9.08-1.2a3.37,3.37,0,0,1,.05-.41,2.56,2.56,0,0,1,0,.41c0,.3,0,.7,0,1.2,0,.27,0,.57,0,.89s-.09.68-.14,1.06a18.23,18.23,0,0,1-.49,2.63,24,24,0,0,1-2.75,6.77,25.3,25.3,0,0,1-30.46,11,26.23,26.23,0,0,1-3.33-1.45,26.57,26.57,0,0,1-3.12-2,28,28,0,0,1-2.9-2.46,27.41,27.41,0,0,1-2.5-2.95,24.67,24.67,0,0,1-3.65-7,25.33,25.33,0,0,1,0-16.08,24.8,24.8,0,0,1,3.65-7,29.5,29.5,0,0,1,2.5-2.95,29.14,29.14,0,0,1,2.9-2.45,26.57,26.57,0,0,1,3.12-2,27.82,27.82,0,0,1,3.33-1.46,25.55,25.55,0,0,1,13.37-1.07,25.34,25.34,0,0,1,17.09,12,23.77,23.77,0,0,1,2.75,6.77,18.37,18.37,0,0,1,.49,2.62c0,.39.11.74.14,1.07s0,.62,0,.88c0,.51,0,.91,0,1.2A2.56,2.56,0,0,1,337.05,130.3Z" style="fill: rgb(38, 50, 56); transform-origin: 311.732px 130.473px;" id="eljrwugb8itsa" class="animable"></path><path d="M341.32,141.59l-.64-13.81a13.38,13.38,0,0,0-13.18-13H296.15a13.4,13.4,0,0,0-13.19,13l-.64,13.81s-.62,9.31,7.77,9.31c0,0,3.88,1,6.83-3.37l5.28-7.06,9.62-.16,9.63.16,5.28,7.06c2.95,4.33,6.83,3.37,6.83,3.37C342,150.9,341.32,141.59,341.32,141.59Z" style="fill: rgb(0, 255, 136); transform-origin: 311.821px 132.889px;" id="elkifzjx5nu6" class="animable"></path><path d="M294.53,122.44v2.33a.77.77,0,0,0,.35.65l1.94,1.43,2-1.47a.81.81,0,0,0,.29-.62v-2.33a.79.79,0,0,0-.79-.79h-3A.79.79,0,0,0,294.53,122.44Z" style="fill: rgb(255, 255, 255); transform-origin: 296.82px 124.245px;" id="el15fhrym351x" class="animable"></path><path d="M299.12,134.65v-2.32a.79.79,0,0,0-.35-.66l-1.95-1.43-2,1.48a.81.81,0,0,0-.29.62v2.32a.79.79,0,0,0,.79.8l3,0A.79.79,0,0,0,299.12,134.65Z" style="fill: rgb(255, 255, 255); transform-origin: 296.825px 132.85px;" id="elelpr92c03p9" class="animable"></path><path d="M290.39,131h2.33a.77.77,0,0,0,.65-.35l1.43-1.94-1.48-2a.79.79,0,0,0-.61-.29h-2.33a.79.79,0,0,0-.79.79v3A.79.79,0,0,0,290.39,131Z" style="fill: rgb(255, 255, 255); transform-origin: 292.195px 128.71px;" id="el7kakw1q91qx" class="animable"></path><path d="M302.87,126.37h-2.32a.79.79,0,0,0-.66.35l-1.43,1.95,1.48,2a.79.79,0,0,0,.61.29h2.33a.78.78,0,0,0,.79-.79v-3A.79.79,0,0,0,302.87,126.37Z" style="fill: rgb(255, 255, 255); transform-origin: 301.065px 128.665px;" id="elxl63mhrtro" class="animable"></path><path d="M324.52,122.44v2.33a.77.77,0,0,0,.35.65l1.94,1.43,2-1.47a.81.81,0,0,0,.29-.62v-2.33a.79.79,0,0,0-.79-.79h-3A.79.79,0,0,0,324.52,122.44Z" style="fill: rgb(255, 255, 255); transform-origin: 326.81px 124.245px;" id="ele05xw9w27fs" class="animable"></path><path d="M329.11,134.65v-2.32a.79.79,0,0,0-.35-.66l-1.95-1.43-2,1.48a.78.78,0,0,0-.29.62v2.32a.79.79,0,0,0,.79.8l3,0A.79.79,0,0,0,329.11,134.65Z" style="fill: rgb(255, 255, 255); transform-origin: 326.815px 132.85px;" id="el6b8mhljowuh" class="animable"></path><path d="M320.38,131h2.32a.79.79,0,0,0,.66-.35l1.43-1.94-1.48-2a.79.79,0,0,0-.61-.29h-2.33a.79.79,0,0,0-.79.79v3A.79.79,0,0,0,320.38,131Z" style="fill: rgb(255, 255, 255); transform-origin: 322.185px 128.71px;" id="elxzycfqt90es" class="animable"></path><path d="M332.86,126.37h-2.32a.79.79,0,0,0-.66.35l-1.43,1.95,1.48,2a.79.79,0,0,0,.61.29h2.33a.79.79,0,0,0,.79-.79v-3A.79.79,0,0,0,332.86,126.37Z" style="fill: rgb(255, 255, 255); transform-origin: 331.055px 128.665px;" id="elpdm5jfm6x2" class="animable"></path></g><g id="freepik--Cash--inject-33" class="animable" style="transform-origin: 314.53px 47.079px;"><path d="M327.54,39.58a14.11,14.11,0,1,1-15.36-12.73A14.1,14.1,0,0,1,327.54,39.58Z" style="fill: rgb(0, 255, 136); transform-origin: 313.492px 40.8984px;" id="el39t42hl9s2p" class="animable"></path><g id="ellf1laxlbyh"><g style="opacity: 0.1; transform-origin: 305.957px 34.53px;" class="animable"><path d="M312.18,26.85a14.11,14.11,0,0,0-12.73,15.36s9.91-.48,11.91-4.68S312.18,26.85,312.18,26.85Z" style="fill: rgb(255, 255, 255); transform-origin: 305.957px 34.53px;" id="elfxuh087z0mq" class="animable"></path></g></g><path d="M323.93,39.7A10.73,10.73,0,1,1,312.25,30,10.72,10.72,0,0,1,323.93,39.7Z" style="fill: rgb(0, 255, 136); transform-origin: 313.245px 40.6833px;" id="el7dw5mxaghja" class="animable"></path><g id="el7ozws9r2na"><g style="opacity: 0.2; transform-origin: 313.245px 40.6833px;" class="animable"><path d="M323.93,39.7A10.73,10.73,0,1,1,312.25,30,10.72,10.72,0,0,1,323.93,39.7Z" id="ellilxsfl7789" class="animable" style="transform-origin: 313.245px 40.6833px;"></path></g></g><path d="M324.27,40.11a10.58,10.58,0,1,1-11.52-9.54A10.57,10.57,0,0,1,324.27,40.11Z" style="fill: rgb(0, 255, 136); transform-origin: 313.737px 41.1034px;" id="elb3h46q7svk" class="animable"></path><g id="elf6wodop08yj"><g style="opacity: 0.2; transform-origin: 313.737px 41.1034px;" class="animable"><path d="M324.27,40.11a10.58,10.58,0,1,1-11.52-9.54A10.57,10.57,0,0,1,324.27,40.11Z" style="fill: rgb(255, 255, 255); transform-origin: 313.737px 41.1034px;" id="elkmeabj38te" class="animable"></path></g></g><path d="M314.07,40.15l-.25-2.7h0a5.57,5.57,0,0,1,1.47.24,4.53,4.53,0,0,1,.71.36l0-.09.32-1,.08-.24-.53-.46-.22.13a5,5,0,0,0-2-.38l-.14-1.48-.49-.33,0,.37-.63.06.14,1.51c-2.06.39-2.94,1.67-2.81,3,.17,1.85,1.81,2.18,3.32,2.41l.25,2.67a5.17,5.17,0,0,1-2.76-.77l-.48,1.41a5.94,5.94,0,0,0,3.38.8l.1,1.12-.52.06.56.3,1.09-.1-.14-1.5c2.08-.41,3-1.68,2.84-3C317.25,40.69,315.59,40.37,314.07,40.15ZM313,40c-.8-.15-1.4-.39-1.46-1s.3-1.1,1.24-1.34Zm.87-2.52Zm.62,6.68-.22-2.37c.82.16,1.44.41,1.5,1.06S315.4,43.89,314.44,44.13Z" style="fill: rgb(0, 255, 136); transform-origin: 313.543px 40.67px;" id="elwtctn29gbh" class="animable"></path><g id="elfykzoxnffq"><g style="opacity: 0.3; transform-origin: 313.543px 40.67px;" class="animable"><path d="M314.07,40.15l-.25-2.7h0a5.57,5.57,0,0,1,1.47.24,4.53,4.53,0,0,1,.71.36l0-.09.32-1,.08-.24-.53-.46-.22.13a5,5,0,0,0-2-.38l-.14-1.48-.49-.33,0,.37-.63.06.14,1.51c-2.06.39-2.94,1.67-2.81,3,.17,1.85,1.81,2.18,3.32,2.41l.25,2.67a5.17,5.17,0,0,1-2.76-.77l-.48,1.41a5.94,5.94,0,0,0,3.38.8l.1,1.12-.52.06.56.3,1.09-.1-.14-1.5c2.08-.41,3-1.68,2.84-3C317.25,40.69,315.59,40.37,314.07,40.15ZM313,40c-.8-.15-1.4-.39-1.46-1s.3-1.1,1.24-1.34Zm.87-2.52Zm.62,6.68-.22-2.37c.82.16,1.44.41,1.5,1.06S315.4,43.89,314.44,44.13Z" id="eligzsv27g4mn" class="animable" style="transform-origin: 313.543px 40.67px;"></path></g></g><path d="M314.09,45.26l.14,1.49-1.09.11L313,45.37a5.79,5.79,0,0,1-3.38-.8l.48-1.4a5.17,5.17,0,0,0,2.76.76l-.25-2.67c-1.51-.22-3.15-.55-3.32-2.41-.13-1.36.75-2.64,2.81-3L312,34.3l1.1-.1.14,1.48a5.7,5.7,0,0,1,2.78.56l-.42,1.4a5.55,5.55,0,0,0-2.23-.51l.25,2.69c1.52.23,3.18.54,3.35,2.4C317.06,43.58,316.17,44.85,314.09,45.26Zm-1.63-5.61-.22-2.38c-.93.23-1.29.75-1.23,1.34S311.67,39.49,312.46,39.65Zm2.78,2.85c-.07-.66-.68-.91-1.5-1.06L314,43.8C314.92,43.57,315.29,43.07,315.24,42.5Z" style="fill: rgb(0, 255, 136); transform-origin: 313.127px 40.53px;" id="el2xknp865wqt" class="animable"></path><path d="M310.31,39.88a.84.84,0,0,1-.34-.28,1.68,1.68,0,0,1-.4-1,1.74,1.74,0,0,1,.28-1,1,1,0,0,1,.31-.32s-.11.13-.24.36a1.73,1.73,0,0,0-.24,1,1.75,1.75,0,0,0,.35.94C310.18,39.77,310.32,39.87,310.31,39.88Z" style="fill: rgb(255, 255, 255); transform-origin: 309.94px 38.58px;" id="ele80b08yhb8" class="animable"></path><path d="M312.31,35.57a.93.93,0,0,1-.09-.43.89.89,0,0,1,0-.45,1,1,0,0,1,.09.44A1,1,0,0,1,312.31,35.57Z" style="fill: rgb(255, 255, 255); transform-origin: 312.263px 35.13px;" id="el6ipdy76qnxi" class="animable"></path><path d="M313.19,29.66h-.34l-.41,0-.53,0-.64.09c-.23,0-.47.09-.73.14a14,14,0,0,0-1.61.51,13.64,13.64,0,0,0-1.53.75l-.62.4c-.19.13-.37.26-.52.38l-.42.34-.3.27a1.56,1.56,0,0,1-.26.22,3.07,3.07,0,0,1,.23-.25l.29-.28a5.26,5.26,0,0,1,.41-.35c.16-.13.33-.27.52-.4s.4-.27.62-.41a10.52,10.52,0,0,1,1.54-.76,10.8,10.8,0,0,1,1.63-.51,7.21,7.21,0,0,1,.74-.13c.23,0,.45-.06.64-.08l.54,0h.41A1.55,1.55,0,0,1,313.19,29.66Z" style="fill: rgb(255, 255, 255); transform-origin: 309.235px 31.175px;" id="elwvd2a5t3dgh" class="animable"></path><path d="M296.1,65.57a2.42,2.42,0,0,1-1.42.6v.92h-.82v-.9A4.41,4.41,0,0,1,292.7,66a3.08,3.08,0,0,1-.89-.44l.46-1a2.53,2.53,0,0,0,.73.39,3.59,3.59,0,0,0,.86.2V63.75a6.42,6.42,0,0,1-1-.32,1.74,1.74,0,0,1-.67-.5,1.36,1.36,0,0,1-.27-.88,1.54,1.54,0,0,1,.5-1.17,2.3,2.3,0,0,1,1.43-.6v-.91h.82v.9a3.58,3.58,0,0,1,1.67.5l-.41,1a3.2,3.2,0,0,0-1.26-.43v1.39a6.27,6.27,0,0,1,1,.3,1.69,1.69,0,0,1,.67.51,1.33,1.33,0,0,1,.27.87A1.54,1.54,0,0,1,296.1,65.57Zm-2.69-3.25a1.18,1.18,0,0,0,.45.22V61.37a.87.87,0,0,0-.46.24.51.51,0,0,0-.15.37A.41.41,0,0,0,293.41,62.32Zm1.71,2.55a.49.49,0,0,0,.15-.35.43.43,0,0,0-.15-.34,1.38,1.38,0,0,0-.44-.23v1.13A.83.83,0,0,0,295.12,64.87Z" style="fill: rgb(38, 50, 56); transform-origin: 294.211px 63.23px;" id="el8ks1y4ea9sc" class="animable"></path><path d="M301.68,60.36V66.1h-1.33V61.42H299.2V60.36Z" style="fill: rgb(38, 50, 56); transform-origin: 300.44px 63.23px;" id="eliij7cwnfx2" class="animable"></path><path d="M304,64.79a.77.77,0,0,1,.22.57,1.24,1.24,0,0,1,0,.33,2.83,2.83,0,0,1-.18.49l-.47,1.19h-.81l.36-1.31a.64.64,0,0,1-.32-.27.75.75,0,0,1-.12-.43.77.77,0,0,1,.22-.57.84.84,0,0,1,.57-.21A.79.79,0,0,1,304,64.79Z" style="fill: rgb(38, 50, 56); transform-origin: 303.455px 65.9749px;" id="elbydzozxazw" class="animable"></path><path d="M305.92,65.85a2.38,2.38,0,0,1-.88-1,4.28,4.28,0,0,1,0-3.2,2.38,2.38,0,0,1,.88-1,2.35,2.35,0,0,1,1.27-.35,2.38,2.38,0,0,1,1.27.35,2.43,2.43,0,0,1,.87,1,4.16,4.16,0,0,1,0,3.2,2.43,2.43,0,0,1-.87,1,2.38,2.38,0,0,1-1.27.35A2.35,2.35,0,0,1,305.92,65.85ZM308,64.62a2.54,2.54,0,0,0,.3-1.39,2.58,2.58,0,0,0-.3-1.4,1,1,0,0,0-1.64,0,2.58,2.58,0,0,0-.3,1.4,2.54,2.54,0,0,0,.3,1.39,1,1,0,0,0,1.64,0Z" style="fill: rgb(38, 50, 56); transform-origin: 307.19px 63.25px;" id="elmuror7f80p" class="animable"></path><path d="M314.54,65V66.1H310.2v-.86l2.22-2.09a2.52,2.52,0,0,0,.47-.58,1.08,1.08,0,0,0,.13-.48.63.63,0,0,0-.24-.53,1.08,1.08,0,0,0-.68-.19,1.55,1.55,0,0,0-.69.15,1.22,1.22,0,0,0-.5.43l-1-.63a2.28,2.28,0,0,1,.92-.78,3.12,3.12,0,0,1,1.36-.28,2.76,2.76,0,0,1,1.12.21,1.71,1.71,0,0,1,.75.59,1.56,1.56,0,0,1,.26.9,2,2,0,0,1-.19.87,3.27,3.27,0,0,1-.77.94L312.07,65Z" style="fill: rgb(38, 50, 56); transform-origin: 312.225px 63.1796px;" id="eltswdikj357g" class="animable"></path><path d="M318.93,63.26a1.54,1.54,0,0,1,.41,1.09,1.68,1.68,0,0,1-.27.92,1.81,1.81,0,0,1-.8.68,3,3,0,0,1-1.31.25,4.4,4.4,0,0,1-1.2-.16,3.18,3.18,0,0,1-1-.46l.52-1A2.58,2.58,0,0,0,316,65a2.93,2.93,0,0,0,.88.13,1.38,1.38,0,0,0,.79-.19.62.62,0,0,0,.29-.54c0-.48-.36-.71-1.08-.71h-.6v-.88l1.18-1.34h-2.45V60.36h4v.86l-1.29,1.48A1.9,1.9,0,0,1,318.93,63.26Z" style="fill: rgb(38, 50, 56); transform-origin: 317.05px 63.2809px;" id="el6rwp6flsq08" class="animable"></path><path d="M321.28,64.79a.77.77,0,0,1,.22.57,1.24,1.24,0,0,1,0,.33,4.05,4.05,0,0,1-.18.49l-.47,1.19H320l.36-1.31a.64.64,0,0,1-.32-.27.75.75,0,0,1-.12-.43.77.77,0,0,1,.22-.57.88.88,0,0,1,1.14,0Z" style="fill: rgb(38, 50, 56); transform-origin: 320.715px 65.9752px;" id="elfxagpk9y9ei" class="animable"></path><path d="M326,61a3,3,0,0,1,.68,2.12,3.46,3.46,0,0,1-.37,1.67,2.4,2.4,0,0,1-1,1.06,3.14,3.14,0,0,1-1.53.36,3.6,3.6,0,0,1-.88-.1,2.45,2.45,0,0,1-.71-.29l.49-1a1.87,1.87,0,0,0,1.07.29,1.58,1.58,0,0,0,1.16-.43,1.79,1.79,0,0,0,.46-1.25,1.9,1.9,0,0,1-1.43.52,2.22,2.22,0,0,1-1-.22,1.74,1.74,0,0,1-.71-.63,1.64,1.64,0,0,1-.26-.94,1.81,1.81,0,0,1,.28-1,1.92,1.92,0,0,1,.79-.67,2.64,2.64,0,0,1,1.1-.23A2.43,2.43,0,0,1,326,61Zm-1.08,1.73a.78.78,0,0,0,.27-.62.77.77,0,0,0-.26-.61,1.06,1.06,0,0,0-.74-.24,1,1,0,0,0-.69.23.86.86,0,0,0,0,1.25,1,1,0,0,0,.71.24A1,1,0,0,0,324.93,62.72Z" style="fill: rgb(38, 50, 56); transform-origin: 324.328px 63.2341px;" id="eldm4yh32bxlg" class="animable"></path><path d="M331.91,63.64a1.35,1.35,0,0,1,.23.8,1.52,1.52,0,0,1-.3.93A2,2,0,0,1,331,66a3.31,3.31,0,0,1-1.27.22,3.35,3.35,0,0,1-1.27-.22,1.91,1.91,0,0,1-.84-.61,1.52,1.52,0,0,1-.3-.93,1.41,1.41,0,0,1,.22-.8,1.63,1.63,0,0,1,.65-.56,1.3,1.3,0,0,1-.49-.5,1.25,1.25,0,0,1-.18-.68,1.46,1.46,0,0,1,.28-.87,1.77,1.77,0,0,1,.78-.57,3.44,3.44,0,0,1,2.31,0,1.74,1.74,0,0,1,.79.57,1.46,1.46,0,0,1,.28.87,1.25,1.25,0,0,1-.18.68,1.33,1.33,0,0,1-.5.5A1.57,1.57,0,0,1,331.91,63.64ZM330.5,65a.71.71,0,0,0,.29-.61.67.67,0,0,0-.29-.59,1.26,1.26,0,0,0-.79-.23,1.23,1.23,0,0,0-.78.23.7.7,0,0,0-.29.59.74.74,0,0,0,.29.61,1.23,1.23,0,0,0,.78.22A1.26,1.26,0,0,0,330.5,65Zm-1.43-3.57a.62.62,0,0,0-.25.53.6.6,0,0,0,.24.51,1,1,0,0,0,.65.19,1.05,1.05,0,0,0,.66-.19.6.6,0,0,0,.24-.51.64.64,0,0,0-.24-.53,1.06,1.06,0,0,0-.66-.2A1,1,0,0,0,329.07,61.43Z" style="fill: rgb(38, 50, 56); transform-origin: 329.73px 63.2506px;" id="elkodp6n1fvl" class="animable"></path><path d="M337.25,60.36v.86l-2.14,4.88h-1.44l2.06-4.66h-1.91v.94h-1.18v-2Z" style="fill: rgb(38, 50, 56); transform-origin: 334.945px 63.23px;" id="elmz6jktanzzn" class="animable"></path></g><g id="freepik--Comments--inject-33" class="animable" style="transform-origin: 281.605px 200.41px;"><path d="M302.41,216.56c0,.14-9.32.26-20.8.26s-20.81-.12-20.81-.26,9.31-.26,20.81-.26S302.41,216.41,302.41,216.56Z" style="fill: rgb(38, 50, 56); transform-origin: 281.605px 216.56px;" id="elf3ujfgt0pz" class="animable"></path><path d="M283.67,191.07H266.92a3,3,0,0,0-3,3v11.06a3,3,0,0,0,3,3h12.57l3.76,3.34-.34-3.34h.31a3,3,0,0,0,3-3V193.57A2.5,2.5,0,0,0,283.67,191.07Z" style="fill: rgb(0, 255, 136); transform-origin: 275.07px 201.27px;" id="el8nfsfhwtw0w" class="animable"></path><path d="M271.5,199.47a1.75,1.75,0,1,1-1.75-1.74A1.75,1.75,0,0,1,271.5,199.47Z" style="fill: rgb(255, 255, 255); transform-origin: 269.75px 199.48px;" id="elckhu8k3qvl5" class="animable"></path><path d="M276.65,199.47a1.75,1.75,0,1,1-1.75-1.74A1.75,1.75,0,0,1,276.65,199.47Z" style="fill: rgb(255, 255, 255); transform-origin: 274.9px 199.48px;" id="elck55yj25hbq" class="animable"></path><path d="M282.14,199.47a1.75,1.75,0,1,1-1.75-1.74A1.75,1.75,0,0,1,282.14,199.47Z" style="fill: rgb(255, 255, 255); transform-origin: 280.39px 199.48px;" id="eld7vhh0mde94" class="animable"></path><path d="M296.47,184h-16a3.1,3.1,0,0,0-3.1,3.1v2.44a.15.15,0,0,0,.14.15h7.13a3.1,3.1,0,0,1,3.11,3.1v8a.14.14,0,0,0,.14.14h4.95a.15.15,0,0,1,.09,0l3.44,3.06a.15.15,0,0,0,.24-.13l-.28-2.8a.15.15,0,0,1,.15-.17h0a3.1,3.1,0,0,0,3.1-3.1V187.14A3.1,3.1,0,0,0,296.47,184Z" style="fill: rgb(0, 255, 136); transform-origin: 288.475px 194.01px;" id="eliizo9jz905" class="animable"></path></g><g id="freepik--Players--inject-33" class="animable" style="transform-origin: 241.835px 147.278px;"><path d="M236.86,139.46a5.23,5.23,0,0,0,3.11-4.84,4.91,4.91,0,1,0-9.8,0,5.21,5.21,0,0,0,3.13,4.88c-7.55,1.13-7.2,9.33-7.2,9.33l17.83.08S244.34,140.59,236.86,139.46Z" style="fill: rgb(0, 255, 136); transform-origin: 235.016px 139.153px;" id="el6j8r1rswvbo" class="animable"></path><path d="M249.8,140.4a4.69,4.69,0,0,0,2.8-4.35,4.42,4.42,0,1,0-8.82,0,4.72,4.72,0,0,0,2.81,4.39,10.24,10.24,0,0,0-3.31,1.18c2.87,2.37,2.54,6.87,2.53,7.25l10.35,0S256.53,141.42,249.8,140.4Z" style="fill: rgb(0, 255, 136); transform-origin: 249.722px 140.101px;" id="elzv2h98lebgc" class="animable"></path><path d="M237.5,161.68a1.74,1.74,0,0,1,.71.63,1.64,1.64,0,0,1,.26.94,1.81,1.81,0,0,1-.28,1,1.92,1.92,0,0,1-.79.67,2.64,2.64,0,0,1-1.1.23,2.46,2.46,0,0,1-1.89-.74,3,3,0,0,1-.68-2.11,3.46,3.46,0,0,1,.37-1.67,2.51,2.51,0,0,1,1-1.06,3.14,3.14,0,0,1,1.53-.36,3.6,3.6,0,0,1,.88.1,2.64,2.64,0,0,1,.72.29l-.49,1a1.91,1.91,0,0,0-1.08-.29,1.53,1.53,0,0,0-1.15.43,1.75,1.75,0,0,0-.46,1.24,1.91,1.91,0,0,1,1.42-.51A2.22,2.22,0,0,1,237.5,161.68Zm-.58,2.26a.79.79,0,0,0,.27-.63.77.77,0,0,0-.27-.62,1,1,0,0,0-.71-.24,1.08,1.08,0,0,0-.72.24.81.81,0,0,0-.27.62.78.78,0,0,0,.27.62,1.06,1.06,0,0,0,.74.24A1,1,0,0,0,236.92,163.94Z" style="fill: rgb(38, 50, 56); transform-origin: 236.097px 162.181px;" id="eltt63vudu3jf" class="animable"></path><path d="M240.15,164.81a2.45,2.45,0,0,1-.88-1,4.28,4.28,0,0,1,0-3.2,2.45,2.45,0,0,1,.88-1,2.48,2.48,0,0,1,2.54,0,2.38,2.38,0,0,1,.88,1,4.28,4.28,0,0,1,0,3.2,2.38,2.38,0,0,1-.88,1,2.48,2.48,0,0,1-2.54,0Zm2.1-1.22a3.42,3.42,0,0,0,0-2.8,1,1,0,0,0-1.65,0,3.42,3.42,0,0,0,0,2.8,1,1,0,0,0,1.65,0Z" style="fill: rgb(38, 50, 56); transform-origin: 241.42px 162.21px;" id="elp53bitaprtk" class="animable"></path><path d="M244.83,162a1.87,1.87,0,0,1,0-2.31,1.45,1.45,0,0,1,2.06,0,1.91,1.91,0,0,1,0,2.31,1.45,1.45,0,0,1-2.06,0Zm1.47-.47a1.18,1.18,0,0,0,.16-.68,1.19,1.19,0,0,0-.16-.69.52.52,0,0,0-.44-.23.5.5,0,0,0-.43.24,1.15,1.15,0,0,0-.17.68,1.14,1.14,0,0,0,.17.67.5.5,0,0,0,.43.24A.52.52,0,0,0,246.3,161.52Zm3-2.2h1l-3.92,5.74h-1Zm-.25,5.62a1.32,1.32,0,0,1-.51-.56,2,2,0,0,1,0-1.67,1.32,1.32,0,0,1,.51-.56,1.37,1.37,0,0,1,.73-.19,1.34,1.34,0,0,1,1,.43,1.87,1.87,0,0,1,0,2.31,1.37,1.37,0,0,1-1,.43A1.47,1.47,0,0,1,249,164.94Zm1.17-.72a1.16,1.16,0,0,0,.16-.68,1.14,1.14,0,0,0-.16-.67.52.52,0,0,0-.87,0,1.18,1.18,0,0,0-.17.68,1.19,1.19,0,0,0,.17.69.52.52,0,0,0,.87,0Z" style="fill: rgb(38, 50, 56); transform-origin: 247.805px 162.201px;" id="elxsxjqjq329" class="animable"></path><path d="M262.64,155.4c0,.14-9.32.26-20.81.26s-20.8-.12-20.8-.26,9.31-.26,20.8-.26S262.64,155.26,262.64,155.4Z" style="fill: rgb(38, 50, 56); transform-origin: 241.835px 155.4px;" id="elm7v0ye0ifo" class="animable"></path></g><g id="freepik--Wins--inject-33" class="animable" style="transform-origin: 240.045px 72.1225px;"><path d="M241.16,54.39l2.09,4.26a1.4,1.4,0,0,0,1.07.77l4.69.68a1.42,1.42,0,0,1,.79,2.42l-3.4,3.31a1.42,1.42,0,0,0-.4,1.25l.8,4.68a1.42,1.42,0,0,1-2.06,1.49L240.54,71a1.44,1.44,0,0,0-1.31,0L235,73.25A1.42,1.42,0,0,1,233,71.76l.81-4.68a1.45,1.45,0,0,0-.41-1.25L230,62.52a1.42,1.42,0,0,1,.79-2.42l4.69-.68a1.4,1.4,0,0,0,1.07-.77l2.1-4.26A1.42,1.42,0,0,1,241.16,54.39Z" style="fill: rgb(0, 255, 136); transform-origin: 239.9px 63.5233px;" id="elqiqdbmhves" class="animable"></path><path d="M236.53,88.05a1.44,1.44,0,0,1,.22.8,1.48,1.48,0,0,1-.3.93,1.94,1.94,0,0,1-.86.62,3.52,3.52,0,0,1-1.27.21,3.56,3.56,0,0,1-1.27-.21,1.93,1.93,0,0,1-.84-.62,1.48,1.48,0,0,1-.3-.93,1.44,1.44,0,0,1,.22-.8,1.61,1.61,0,0,1,.65-.55,1.46,1.46,0,0,1-.49-.5,1.31,1.31,0,0,1-.18-.69,1.46,1.46,0,0,1,.28-.87,1.93,1.93,0,0,1,.78-.57,3.44,3.44,0,0,1,2.31,0,1.9,1.9,0,0,1,.79.57,1.46,1.46,0,0,1,.28.87,1.31,1.31,0,0,1-.18.69,1.41,1.41,0,0,1-.5.5A1.58,1.58,0,0,1,236.53,88.05Zm-1.42,1.36a.75.75,0,0,0,0-1.2,1.51,1.51,0,0,0-1.57,0,.78.78,0,0,0,0,1.21,1.29,1.29,0,0,0,.78.22A1.24,1.24,0,0,0,235.11,89.41Zm-1.43-3.57a.65.65,0,0,0-.24.53.62.62,0,0,0,.23.52,1.07,1.07,0,0,0,.65.19,1.1,1.1,0,0,0,.66-.19.63.63,0,0,0,.24-.52.65.65,0,0,0-.24-.53,1,1,0,0,0-.66-.19A1,1,0,0,0,233.68,85.84Z" style="fill: rgb(38, 50, 56); transform-origin: 234.33px 87.6405px;" id="el47kseuj5xdo" class="animable"></path><path d="M238.55,90.26a2.4,2.4,0,0,1-.88-1,3.74,3.74,0,0,1-.31-1.6,3.67,3.67,0,0,1,.31-1.59,2.49,2.49,0,0,1,.88-1,2.38,2.38,0,0,1,1.27-.35A2.28,2.28,0,0,1,242,86.05a3.67,3.67,0,0,1,.31,1.59,3.74,3.74,0,0,1-.31,1.6,2.4,2.4,0,0,1-3.42,1Zm2.1-1.22a2.58,2.58,0,0,0,.3-1.4,2.54,2.54,0,0,0-.3-1.39,1,1,0,0,0-1.65,0,2.55,2.55,0,0,0-.29,1.39A2.59,2.59,0,0,0,239,89a1,1,0,0,0,1.65,0Z" style="fill: rgb(38, 50, 56); transform-origin: 239.835px 87.657px;" id="el5wi3q7s4a8" class="animable"></path><path d="M243.23,87.44a1.66,1.66,0,0,1-.4-1.15,1.64,1.64,0,0,1,.4-1.15,1.43,1.43,0,0,1,2.06,0,1.64,1.64,0,0,1,.39,1.15,1.65,1.65,0,0,1-.39,1.15,1.45,1.45,0,0,1-2.06,0ZM244.7,87a1.53,1.53,0,0,0,0-1.36.49.49,0,0,0-.44-.23.51.51,0,0,0-.43.23,1.18,1.18,0,0,0-.17.68,1.2,1.2,0,0,0,.17.68.53.53,0,0,0,.87,0Zm3-2.2h1l-3.92,5.75h-1Zm-.25,5.62a1.26,1.26,0,0,1-.51-.56,2,2,0,0,1,0-1.67,1.24,1.24,0,0,1,.51-.55,1.38,1.38,0,0,1,.73-.2,1.36,1.36,0,0,1,1,.43,1.64,1.64,0,0,1,.4,1.16,1.61,1.61,0,0,1-.4,1.15,1.32,1.32,0,0,1-1,.43A1.37,1.37,0,0,1,247.43,90.39Zm1.17-.72a1.14,1.14,0,0,0,.16-.67,1.18,1.18,0,0,0-.16-.68.49.49,0,0,0-.44-.23.49.49,0,0,0-.43.23,1.45,1.45,0,0,0,0,1.36.51.51,0,0,0,.43.23A.5.5,0,0,0,248.6,89.67Z" style="fill: rgb(38, 50, 56); transform-origin: 246.205px 87.6561px;" id="el65yroffh06e" class="animable"></path><path d="M260.85,80.86c0,.14-9.32.26-20.8.26s-20.81-.12-20.81-.26,9.31-.27,20.81-.27S260.85,80.71,260.85,80.86Z" style="fill: rgb(38, 50, 56); transform-origin: 240.045px 80.855px;" id="elm72vyobsfub" class="animable"></path></g><g id="freepik--Chart--inject-33" class="animable" style="transform-origin: 388.295px 83.0951px;"><rect x="369.92" y="75.25" width="9.19" height="17.64" style="fill: rgb(0, 255, 136); transform-origin: 374.515px 84.07px;" id="eleic1oagp7v9" class="animable"></rect><rect x="383.82" y="69.32" width="9.19" height="23.57" style="fill: rgb(0, 255, 136); transform-origin: 388.415px 81.105px;" id="elq64fdmo31u" class="animable"></rect><rect x="397.48" y="64.38" width="9.19" height="28.51" style="fill: rgb(0, 255, 136); transform-origin: 402.075px 78.635px;" id="eldw5y2026qw" class="animable"></rect><path d="M384.77,105.34v.86l-2.13,4.88h-1.45l2.06-4.66h-1.9v.94h-1.18v-2Z" style="fill: rgb(38, 50, 56); transform-origin: 382.47px 108.21px;" id="eli6co5ko8j4f" class="animable"></path><path d="M386.39,110.83a2.52,2.52,0,0,1-.88-1,4.28,4.28,0,0,1,0-3.2,2.52,2.52,0,0,1,.88-1,2.38,2.38,0,0,1,1.27-.35,2.35,2.35,0,0,1,1.27.35,2.38,2.38,0,0,1,.88,1,4.28,4.28,0,0,1,0,3.2,2.38,2.38,0,0,1-.88,1,2.35,2.35,0,0,1-1.27.35A2.38,2.38,0,0,1,386.39,110.83Zm2.1-1.23a2.54,2.54,0,0,0,.3-1.39,2.58,2.58,0,0,0-.3-1.4,1,1,0,0,0-1.65,0,2.58,2.58,0,0,0-.3,1.4,2.54,2.54,0,0,0,.3,1.39,1,1,0,0,0,1.65,0Z" style="fill: rgb(38, 50, 56); transform-origin: 387.66px 108.23px;" id="el3c8u5nm68fs" class="animable"></path><path d="M391.07,108a1.87,1.87,0,0,1,0-2.31,1.45,1.45,0,0,1,2.06,0,1.91,1.91,0,0,1,0,2.31,1.45,1.45,0,0,1-2.06,0Zm1.47-.47a1.19,1.19,0,0,0,.16-.69,1.18,1.18,0,0,0-.16-.68.52.52,0,0,0-.44-.23.5.5,0,0,0-.43.24,1.14,1.14,0,0,0-.17.67,1.15,1.15,0,0,0,.17.68.5.5,0,0,0,.43.24A.52.52,0,0,0,392.54,107.54Zm3-2.2h1l-3.92,5.74h-1Zm-.25,5.61a1.24,1.24,0,0,1-.51-.55,2,2,0,0,1,0-1.67,1.32,1.32,0,0,1,.51-.56A1.37,1.37,0,0,1,396,108a1.32,1.32,0,0,1,1,.43,1.61,1.61,0,0,1,.4,1.15,1.64,1.64,0,0,1-.4,1.16,1.36,1.36,0,0,1-1,.43A1.38,1.38,0,0,1,395.27,111Zm1.17-.71a1.18,1.18,0,0,0,.16-.68,1.14,1.14,0,0,0-.16-.67.52.52,0,0,0-.87,0,1.18,1.18,0,0,0-.17.68,1.15,1.15,0,0,0,.17.68.48.48,0,0,0,.43.23A.49.49,0,0,0,396.44,110.24Z" style="fill: rgb(38, 50, 56); transform-origin: 394.036px 108.216px;" id="elt3bxkztdw1h" class="animable"></path><path d="M405,98.79c0,.15-7.41.26-16.55.26s-16.55-.11-16.55-.26,7.41-.26,16.55-.26S405,98.65,405,98.79Z" style="fill: rgb(38, 50, 56); transform-origin: 388.45px 98.79px;" id="eld8e0ggpbhtw" class="animable"></path><path d="M398.71,55.36a7.62,7.62,0,0,1-.93.88l-2.61,2.3c-2.23,1.93-5.31,4.57-8.74,7.47l-.52.44-.13.11-.13-.12-3.88-3.61H382l-5.71,4.7-1.65,1.33a3.59,3.59,0,0,1-.62.44,3.9,3.9,0,0,1,.54-.53l1.59-1.41,5.61-4.81.13-.11.12.11c1.21,1.12,2.52,2.33,3.9,3.59h-.26l.52-.44c3.42-2.9,6.54-5.51,8.81-7.38l2.7-2.21A6.62,6.62,0,0,1,398.71,55.36Z" style="fill: rgb(38, 50, 56); transform-origin: 386.365px 62.33px;" id="eltdrjey0ynwf" class="animable"></path><path d="M398.71,61.85a10.15,10.15,0,0,1-.14-1.93c0-1.2-.05-2.86-.06-4.72l.2.2h-.34c-1.92,0-3.67,0-4.94-.06a9.49,9.49,0,0,1-2-.14,11.43,11.43,0,0,1,2-.14c1.27,0,3-.05,4.94-.05h.54v.19c0,1.86,0,3.52-.06,4.72A10.15,10.15,0,0,1,398.71,61.85Z" style="fill: rgb(38, 50, 56); transform-origin: 395.17px 58.43px;" id="elketax8lwk4a" class="animable"></path></g><g id="freepik--Device--inject-33" class="animable" style="transform-origin: 366.034px 420.025px;"><path d="M440.92,367.65V472.4H291.4s-3.89-77.14,18.91-104.75Z" style="fill: rgb(38, 50, 56); transform-origin: 366.034px 420.025px;" id="elqonstm2lhui" class="animable"></path><path d="M331.34,472.4a.84.84,0,0,1,0-.28c0-.21,0-.48,0-.81,0-.76.05-1.81.08-3.14.09-2.73.19-6.67.41-11.54.59-9.73,1.47-23.2,3.72-37.92s5.44-27.88,8.9-37a70.81,70.81,0,0,1,4.75-10.53,30,30,0,0,1,1.67-2.66c.22-.29.38-.51.5-.65a1.14,1.14,0,0,1,.19-.2,1,1,0,0,1-.15.23l-.45.68c-.38.61-.95,1.5-1.58,2.7a75.72,75.72,0,0,0-4.58,10.56c-3.36,9.14-6.48,22.28-8.73,37s-3.18,28.14-3.87,37.86c-.24,4.83-.44,8.76-.58,11.52-.07,1.33-.13,2.38-.17,3.14q0,.49-.06.81A1.18,1.18,0,0,1,331.34,472.4Z" style="fill: rgb(69, 90, 100); transform-origin: 341.444px 420.035px;" id="eltmttm1a71nl" class="animable"></path><path d="M431.55,377V466.3H339.41s4.43-74.18,17.73-89.34Z" style="fill: rgb(224, 224, 224); transform-origin: 385.48px 421.63px;" id="elley8wx9kdun" class="animable"></path><path d="M300,408.72c0-.14,6-.26,13.45-.26s13.46.12,13.46.26-6,.27-13.46.27S300,408.87,300,408.72Z" style="fill: rgb(69, 90, 100); transform-origin: 313.455px 408.725px;" id="eles1bx6e8jvd" class="animable"></path><path d="M303.66,403.05c0-.15,5.41-.26,12.08-.26s12.08.11,12.08.26-5.41.26-12.08.26S303.66,403.2,303.66,403.05Z" style="fill: rgb(69, 90, 100); transform-origin: 315.74px 403.05px;" id="elqihd96culbm" class="animable"></path><path d="M296.34,443.13a1.33,1.33,0,0,1,0-.26v-.76a22.18,22.18,0,0,1,.21-2.93,21.52,21.52,0,0,1,3.94-10,14.84,14.84,0,0,1,2.49-2.6,11.44,11.44,0,0,1,3.44-1.88,9.73,9.73,0,0,1,4.18-.42,10.78,10.78,0,0,1,4.19,1.52,16.19,16.19,0,0,1,5.92,7.34,25.63,25.63,0,0,1,0,19.9,16.19,16.19,0,0,1-5.92,7.34,10.78,10.78,0,0,1-4.19,1.52,9.73,9.73,0,0,1-4.18-.42,11.66,11.66,0,0,1-3.44-1.88,14.48,14.48,0,0,1-2.49-2.6,21.51,21.51,0,0,1-3.94-10,22,22,0,0,1-.21-2.92c0-.31,0-.56,0-.76a1.33,1.33,0,0,1,0-.26,1.11,1.11,0,0,1,0,.26c0,.2,0,.45.05.76a28.59,28.59,0,0,0,.31,2.89,21.93,21.93,0,0,0,4,9.77,14.55,14.55,0,0,0,2.46,2.51,10.81,10.81,0,0,0,3.32,1.78,9.13,9.13,0,0,0,4,.38,10.2,10.2,0,0,0,4-1.48,15.71,15.71,0,0,0,5.71-7.13,25.33,25.33,0,0,0,0-19.49,15.76,15.76,0,0,0-5.71-7.13,10.34,10.34,0,0,0-4-1.47,9.28,9.28,0,0,0-4,.37,11.05,11.05,0,0,0-3.32,1.79,14.87,14.87,0,0,0-2.46,2.5,22.13,22.13,0,0,0-4,9.77,28.73,28.73,0,0,0-.31,2.9c0,.31,0,.56-.05.76A1.11,1.11,0,0,1,296.34,443.13Z" style="fill: rgb(0, 255, 136); transform-origin: 309.527px 443.09px;" id="elyv69r0v2g9" class="animable"></path></g><g id="freepik--Character--inject-33" class="animable animator-active" style="transform-origin: 172.392px 289.812px;"><path d="M142.24,275.48c-3.65-17.09-6.94-41.13-12.72-49.79-4.7-7-16.17-14.44-19.12-27.43-1.58-6.94-3.21-12.45-4.38-16.08a7.08,7.08,0,0,0-6.74-4.9H65.78a6.29,6.29,0,0,0-6.29,6.7c.49,7.74,1,20-.49,24.63-2.21,6.95-5.81,19.72-4.43,25.79.55,2.4,9.41,28.78,14.47,44.27a119.42,119.42,0,0,1,5,22.73L79.6,347l79.85-1.75S145,288.29,142.24,275.48ZM82.93,218.7c-.49.37-1.17,0-1.65-.4A27.08,27.08,0,0,1,73,207.54a26.53,26.53,0,0,1-1.45-8.13,32.36,32.36,0,0,1,.14-8.46,10.76,10.76,0,0,1,4.31-7,3.38,3.38,0,0,1,3.33-.5c1.15.62,1.45,2.1,1.63,3.39l1.68,19.33c.18,3.66.5,8,.61,11.35A1.41,1.41,0,0,1,82.93,218.7Zm18.45-11.91a27.14,27.14,0,0,1-6.52,11.89c-.42.45-1,.94-1.57.64s-.48-.71-.54-1.15c-.4-3.38-.74-7.66-1.11-11.31L90.35,187.5c0-1.3.06-2.81,1.1-3.6a3.38,3.38,0,0,1,3.37,0,10.73,10.73,0,0,1,5.33,6.3,32.1,32.1,0,0,1,1.42,8.34A26.89,26.89,0,0,1,101.38,206.79Z" style="fill: rgb(69, 90, 100); transform-origin: 106.857px 262.14px;" id="elglenalpwqcv" class="animable"></path><path d="M146.4,275.48c-3.64-17.09-6.94-41.13-12.72-49.79-4.7-7-16.16-14.44-19.12-27.43-1.58-6.94-3.2-12.45-4.38-16.08a7.06,7.06,0,0,0-6.73-4.9H69.94a6.3,6.3,0,0,0-6.29,6.7c.49,7.74,1,20-.48,24.63-2.22,6.95-5.82,19.72-4.44,25.79.55,2.4,9.42,28.78,14.47,44.27a120.21,120.21,0,0,1,5,22.73L83.76,347l79.86-1.75S149.13,288.29,146.4,275.48ZM87.09,218.7c-.49.37-1.17,0-1.65-.4a23.1,23.1,0,0,1-9.7-18.89,32.36,32.36,0,0,1,.14-8.46,10.76,10.76,0,0,1,4.31-7,3.39,3.39,0,0,1,3.33-.5c1.15.62,1.45,2.1,1.63,3.39l1.68,19.33c.18,3.66.5,8,.61,11.35A1.41,1.41,0,0,1,87.09,218.7Zm18.45-11.91A27.14,27.14,0,0,1,99,218.68c-.42.45-1,.94-1.57.64a1.39,1.39,0,0,1-.53-1.15c-.41-3.38-.74-7.66-1.12-11.31L94.51,187.5c0-1.3.06-2.81,1.11-3.6a3.36,3.36,0,0,1,3.36,0,10.73,10.73,0,0,1,5.33,6.3,32.1,32.1,0,0,1,1.42,8.34A26.89,26.89,0,0,1,105.54,206.79Z" style="fill: rgb(38, 50, 56); transform-origin: 111.022px 262.14px;" id="el329rpahu8ld" class="animable"></path><path d="M138.4,254.17c0,.15-16.15.27-36.06.27s-36.07-.12-36.07-.27,16.15-.26,36.07-.26S138.4,254,138.4,254.17Z" style="fill: rgb(69, 90, 100); transform-origin: 102.335px 254.175px;" id="el57axn53lx8k" class="animable"></path><path d="M166,356.07s-16.76-67.56-19.49-80.37c-3.64-17.09-6.94-41.13-12.72-49.79-4.7-7-16.16-14.44-19.12-27.43-1.58-6.94-3.2-12.45-4.38-16.08a7.07,7.07,0,0,0-6.73-4.9" style="fill: none; transform-origin: 134.78px 266.785px;" id="el8a9psrbncda" class="animable"></path><path d="M103.58,177.5h.5a6.84,6.84,0,0,1,1.45.23,7.11,7.11,0,0,1,4.36,3.44c1.88,4.57,3.52,11.51,5.74,19.94a33.7,33.7,0,0,0,2.89,6.18,47.58,47.58,0,0,0,4.38,6c1.65,2,3.49,3.89,5.39,5.87a57.43,57.43,0,0,1,5.57,6.42,33.92,33.92,0,0,1,3.71,8.13c1,2.89,1.78,5.88,2.52,8.95,1.49,6.14,2.71,12.56,4,19.12s2.45,13,3.91,19.12,2.86,12.05,4.19,17.69c2.73,11.26,5.18,21.4,7.25,29.92l4.89,20.17c.56,2.37,1,4.21,1.3,5.49l.33,1.43c.07.33.09.49.09.49l-.14-.47-.38-1.42c-.33-1.27-.8-3.11-1.4-5.47-1.2-4.77-2.93-11.65-5-20.13s-4.59-18.65-7.36-29.9L147.46,281c-1.47-6.13-2.67-12.56-3.92-19.13s-2.47-13-4-19.1c-.73-3.06-1.53-6-2.49-8.91a33.24,33.24,0,0,0-3.64-8,56.62,56.62,0,0,0-5.49-6.37c-1.9-2-3.74-3.93-5.4-5.91a48.56,48.56,0,0,1-4.39-6.06,33.47,33.47,0,0,1-2.89-6.27c-.67-2.11-1.08-4.15-1.55-6.07s-.92-3.72-1.38-5.39-.9-3.24-1.32-4.67a26.6,26.6,0,0,0-1.32-3.83,7,7,0,0,0-4.21-3.44A8.6,8.6,0,0,0,103.58,177.5Z" style="fill: rgb(69, 90, 100); transform-origin: 134.815px 266.795px;" id="elrq5de72s9j" class="animable"></path><path d="M161.74,356.07s-17-67.56-19.69-80.37c-3.64-17.09-6.94-41.13-12.72-49.79-4.7-7-16.16-14.44-19.12-27.43-1.57-6.94-3.2-12.45-4.38-16.08a7.07,7.07,0,0,0-6.73-4.9" style="fill: none; transform-origin: 130.42px 266.785px;" id="eln3uz0wz7tmd" class="animable"></path><rect x="166.02" y="373.14" width="7.69" height="84.71" style="fill: rgb(224, 224, 224); transform-origin: 169.865px 415.495px;" id="elk3jjerkvaya" class="animable"></rect><rect x="162.5" y="390.53" width="14.43" height="61.01" style="fill: rgb(224, 224, 224); transform-origin: 169.715px 421.035px;" id="elcr7xxylsy2" class="animable"></rect><path d="M88.29,359.45S135,374.4,168.71,374.4s72.61-14.95,72.61-14.95H86.17" style="fill: rgb(224, 224, 224); transform-origin: 163.745px 366.925px;" id="elk0kor67aqc" class="animable"></path><path d="M78.94,338.92v15.43a6.15,6.15,0,0,0,6.15,6.15h153.3a6.15,6.15,0,0,0,6.15-6.15V347a6.15,6.15,0,0,0-6.07-6.15L78.94,338.92" style="fill: rgb(38, 50, 56); transform-origin: 161.74px 349.71px;" id="elntp780fi2ta" class="animable"></path><path d="M96.17,453.25s30.73-29.17,74.27-28.53,73.13,28.53,73.13,28.53l-4.27,4.81s-34.71-19.88-71.42-18.28-68,18.28-68,18.28Z" style="fill: rgb(38, 50, 56); transform-origin: 169.87px 441.385px;" id="el5g1fras04y3" class="animable"></path><path d="M105.22,457.18c7.39,9.71-3.59,20.69-13.3,13.29C84.53,460.76,95.5,449.79,105.22,457.18Z" style="fill: rgb(69, 90, 100); transform-origin: 98.5694px 463.827px;" id="elnlrpyppi2x7" class="animable"></path><path d="M178.77,463.31a9.08,9.08,0,1,1-9.08-9.07A9.07,9.07,0,0,1,178.77,463.31Z" style="fill: rgb(69, 90, 100); transform-origin: 169.69px 463.32px;" id="el4yxfh0yil9p" class="animable"></path><path d="M255,463.31a9.07,9.07,0,1,1-9.07-9.07A9.07,9.07,0,0,1,255,463.31Z" style="fill: rgb(69, 90, 100); transform-origin: 245.93px 463.31px;" id="elsh2xs0u6h6o" class="animable"></path><path d="M141.71,293.26l1,4.34H234.6a3.71,3.71,0,0,0,3.66-3.11h0a3.69,3.69,0,0,0-2.12-4c-5.83-2.67-21.89-8.48-50.56-8.14-40.65.47-43.87,6.87-43.87,6.87Z" style="fill: rgb(38, 50, 56); transform-origin: 190.013px 289.968px;" id="elqpw33b29cb" class="animable"></path><path d="M207.28,294c-.18,1.4-15.37,53-15.37,53H176.2l15.17-53Z" style="fill: rgb(38, 50, 56); transform-origin: 191.74px 320.5px;" id="eld26hi9n7mif" class="animable"></path><path d="M236.18,297.6c0,.14-20.67.26-46.17.26s-46.16-.12-46.16-.26,20.66-.27,46.16-.27S236.18,297.45,236.18,297.6Z" style="fill: rgb(69, 90, 100); transform-origin: 190.015px 297.595px;" id="ellu0g8chi8rk" class="animable"></path><path d="M238.47,360.5l-.36.14L237,361l-4.12,1.42c-3.57,1.25-8.79,2.91-15.29,4.78-3.27.87-6.83,1.91-10.73,2.74-2,.42-3.94,1-6,1.32l-6.43,1.18a162.26,162.26,0,0,1-29,2c-2.58-.06-5.14-.09-7.65-.33L154,373.9l-1.85-.14-1.82-.22-7.12-.87-6.79-1.12c-2.21-.34-4.35-.8-6.42-1.22l-6-1.25c-3.86-.93-7.48-1.75-10.76-2.59l-8.82-2.36c-2.59-.72-4.8-1.39-6.62-1.92L93.6,361l-1.08-.33-.36-.13a1.41,1.41,0,0,1,.38.08l1.09.28L97.84,362l6.64,1.83,8.83,2.29c3.28.81,6.9,1.61,10.77,2.52l6,1.22c2.07.42,4.2.87,6.41,1.2l6.78,1.1,7.1.86,1.82.21,1.84.14,3.73.27c2.5.24,5,.27,7.62.33a164.37,164.37,0,0,0,28.94-2l6.42-1.15c2.09-.36,4.08-.89,6-1.3,3.89-.8,7.45-1.83,10.73-2.67,6.51-1.82,11.74-3.42,15.33-4.62l4.15-1.32,1.08-.34A1.73,1.73,0,0,1,238.47,360.5Z" style="fill: rgb(38, 50, 56); transform-origin: 165.315px 367.488px;" id="ely8douh2jifg" class="animable"></path><path d="M176.92,390.53a48.25,48.25,0,0,1-7.21.27,48.25,48.25,0,0,1-7.21-.27,50.87,50.87,0,0,1,7.21-.26A50.87,50.87,0,0,1,176.92,390.53Z" style="fill: rgb(38, 50, 56); transform-origin: 169.71px 390.536px;" id="el4lpoa8jny08" class="animable"></path><g id="elvbe55hsxc4q"><circle cx="197.99" cy="154.58" r="11.28" style="fill: rgb(69, 90, 100); transform-origin: 197.99px 154.58px; transform: rotate(-76.78deg);" class="animable"></circle></g><path d="M176.37,111.75c.26-4.46,3.33-4.78,5.6-4a7.9,7.9,0,0,1,9.63,1.45,7,7,0,0,1,9.78,7.08,5.88,5.88,0,0,1,3.8,10.49,5.65,5.65,0,0,1-3.79,10.58l-25.57-20.78C174.35,114.65,176.23,114.14,176.37,111.75Z" style="fill: rgb(38, 50, 56); transform-origin: 191.821px 122.119px;" id="elvem1vhf0ang" class="animable"></path><path d="M202.1,138.2a24,24,0,0,0-20.82-25l-1.23-.16c-13.37-1-21.66,9.85-22.25,23.24l-3.88,44.44-.71,8.44L183,199.35l2-17.55s13-.31,14.85-13C200.73,162.61,201.52,149.8,202.1,138.2Z" style="fill: rgb(255, 191, 157); transform-origin: 177.67px 156.163px;" id="elucvb8utnxgm" class="animable"></path><path d="M185.11,181.8A31.23,31.23,0,0,1,169,174.72s2.73,9.69,15.61,10.21Z" style="fill: rgb(255, 154, 108); transform-origin: 177.055px 179.825px;" id="ellaf910cdsd" class="animable"></path><path d="M198,149.18a1.84,1.84,0,0,1-2,1.61,1.76,1.76,0,0,1-1.66-1.89,1.84,1.84,0,0,1,2-1.61A1.76,1.76,0,0,1,198,149.18Z" style="fill: rgb(38, 50, 56); transform-origin: 196.17px 149.04px;" id="eliv1ebpw6d2t" class="animable"></path><path d="M198.6,144.75c-.26.2-1.5-1-3.46-1.25s-3.53.54-3.71.27.2-.52.88-.89a5.05,5.05,0,0,1,3-.51,4.85,4.85,0,0,1,2.72,1.29C198.58,144.2,198.73,144.65,198.6,144.75Z" style="fill: rgb(38, 50, 56); transform-origin: 195.015px 143.547px;" id="elr8cmrpumrw" class="animable"></path><path d="M180.61,147a1.83,1.83,0,0,1-2,1.61,1.76,1.76,0,0,1-1.67-1.89,1.86,1.86,0,0,1,2-1.61A1.76,1.76,0,0,1,180.61,147Z" style="fill: rgb(38, 50, 56); transform-origin: 178.775px 146.861px;" id="elnah67a86aq" class="animable"></path><path d="M179.89,142c-.26.21-1.51-1-3.47-1.24s-3.52.54-3.7.27c-.09-.12.19-.52.88-.89a5,5,0,0,1,3-.51,4.85,4.85,0,0,1,2.71,1.28C179.86,141.47,180,141.92,179.89,142Z" style="fill: rgb(38, 50, 56); transform-origin: 176.314px 140.802px;" id="el4rfvus84na2" class="animable"></path><path d="M184.44,157.39a12.33,12.33,0,0,1,3.26-.16c.5,0,1,0,1.12-.36a2.56,2.56,0,0,0-.14-1.52l-1-4c-1.34-5.69-2.25-10.35-2-10.4s1.51,4.52,2.85,10.22c.32,1.4.63,2.74.92,4a3,3,0,0,1,0,2,1.3,1.3,0,0,1-.92.63,3.6,3.6,0,0,1-.87,0A13,13,0,0,1,184.44,157.39Z" style="fill: rgb(38, 50, 56); transform-origin: 187.031px 149.388px;" id="elqjar8ccdmuo" class="animable"></path><path d="M178.49,158c.32,0,0,2.16,1.67,3.9s3.92,1.82,3.9,2.12c0,.13-.56.34-1.52.24a5.31,5.31,0,0,1-3.27-1.64,4.61,4.61,0,0,1-1.26-3.25C178,158.45,178.35,158,178.49,158Z" style="fill: rgb(38, 50, 56); transform-origin: 181.035px 161.143px;" id="ela85nige41cs" class="animable"></path><path d="M180.65,136.42c-.3.48-1.93-.2-4-.44s-3.82,0-4-.56c-.06-.26.34-.67,1.12-1A6.22,6.22,0,0,1,177,134a5.89,5.89,0,0,1,2.9,1.17C180.52,135.69,180.78,136.19,180.65,136.42Z" style="fill: rgb(38, 50, 56); transform-origin: 176.663px 135.265px;" id="el2ygizn6c4lt" class="animable"></path><path d="M198.86,139.31c-.37.43-1.7-.1-3.34-.2s-3,.16-3.33-.33c-.13-.23.11-.67.74-1.07a4.85,4.85,0,0,1,5.37.43C198.86,138.63,199,139.1,198.86,139.31Z" style="fill: rgb(38, 50, 56); transform-origin: 195.533px 138.286px;" id="el4drjntrdbqj" class="animable"></path><path d="M201.64,132.19s-2.31-8.43-5.92-10.8c-4.37-2.86-7,2-11.32.16S176,117,171,119.82c-5.46,3.11-3.48,6.05-4.53,11.67-4.26,22.78-9.3,28.72-9.07,17.75,0-1.2-3.14-2.57-3-7.64.22-6.56,1-14.47,3.06-18.89,1.72-3.72,4.29-6.11,8.64-8.54,6.88-3.84,15.49-2.82,21.25-1.46S203.49,122.26,201.64,132.19Z" style="fill: rgb(38, 50, 56); transform-origin: 178.127px 133.033px;" id="eldqzntqns08i" class="animable"></path><path d="M158.22,149a3.49,3.49,0,0,0-3.3-3.82c-2.41-.09-5.23.91-5.72,5.85-.87,8.76,8.1,7.82,8.14,7.57S157.89,152.67,158.22,149Z" style="fill: rgb(255, 191, 157); transform-origin: 153.688px 151.965px;" id="el7ar04nshik8" class="animable"></path><path d="M155.76,155.12s-.16.09-.43.18a1.51,1.51,0,0,1-1.14-.09c-.89-.43-1.53-2-1.41-3.56a4.88,4.88,0,0,1,.64-2.14,1.79,1.79,0,0,1,1.26-1.06.78.78,0,0,1,.86.51c.09.26,0,.43.07.45s.2-.13.16-.5a1,1,0,0,0-.29-.58,1.17,1.17,0,0,0-.82-.31,2.16,2.16,0,0,0-1.73,1.2,5.36,5.36,0,0,0-.77,2.39c-.11,1.77.63,3.51,1.86,4a1.63,1.63,0,0,0,1.41-.09C155.73,155.33,155.79,155.13,155.76,155.12Z" style="fill: rgb(255, 154, 108); transform-origin: 153.963px 151.874px;" id="elrobq9x9oz6" class="animable"></path><path d="M160.6,132.13a8.43,8.43,0,0,0,3.47,2.19,2.86,2.86,0,0,0,3.42-1.58c.18-.6.13-1.32.59-1.74s1.4-.2,2.12,0a5.62,5.62,0,0,0,6.3-3.23c.52,1,2,1.2,3.1.7a12.72,12.72,0,0,0,2.71-2.23,3.6,3.6,0,0,1,3.18-1.1,8.75,8.75,0,0,0,1.85.67c1.15,0,1.89-1.22,2.21-2.34s.63-2.42,1.68-2.91,2.1,0,3.13.32,2.43.23,2.83-.77a2,2,0,0,0-.18-1.63,5.69,5.69,0,0,0-6.38-3,7.72,7.72,0,0,0-13.87-3.33,7.84,7.84,0,0,0-12.79,1.2,5.68,5.68,0,0,0-7.42,7.36,5.38,5.38,0,0,0-3.5,3.87c-.27,1.8,1.25,3.83,3.06,3.58a3.14,3.14,0,0,0,5,3.82" style="fill: rgb(38, 50, 56); transform-origin: 175.153px 121.702px;" id="ely7xljzqimr" class="animable"></path><path d="M155.47,128a2.09,2.09,0,0,0,.32,1.75A2.84,2.84,0,0,0,157.4,131a3,3,0,0,0,2.58-.4l-.36-.1a8.45,8.45,0,0,0,1.46,2.4,4.94,4.94,0,0,0,1.46,1.2,3.91,3.91,0,0,0,4.43-.72,5,5,0,0,0,.95-1.72,1.68,1.68,0,0,0,.16-.7s-.14.22-.34.62a6,6,0,0,1-1,1.55,3.57,3.57,0,0,1-5.25-.56,8.47,8.47,0,0,1-1.39-2.26l-.12-.27-.25.17a2.7,2.7,0,0,1-2.19.4,2.67,2.67,0,0,1-1.47-1A4.34,4.34,0,0,1,155.47,128Z" style="fill: rgb(69, 90, 100); transform-origin: 161.74px 131.245px;" id="elpfk1zxx166s" class="animable"></path><path d="M234.15,420.35l-8.87,26.71s24.17,18,23,23.09L195.88,454.8,208,412.61Z" style="fill: rgb(38, 50, 56); transform-origin: 222.101px 441.38px;" id="elg2prrmmwty8" class="animable"></path><g id="elzhyyaizs18"><g style="opacity: 0.3; transform-origin: 222.101px 441.38px;" class="animable"><path d="M234.15,420.35l-8.87,26.71s24.17,18,23,23.09L195.88,454.8,208,412.61Z" id="elqdvvpsmiqh7" class="animable" style="transform-origin: 222.101px 441.38px;"></path></g></g><path d="M209.73,440a2.23,2.23,0,0,0-2.19,2,2.14,2.14,0,0,0,2,2.2,2.35,2.35,0,0,0,2.31-2.14,2.22,2.22,0,0,0-2.3-2.06" style="fill: rgb(224, 224, 224); transform-origin: 209.695px 442.099px;" id="elqr4jmh137dc" class="animable"></path><g id="elcwk6j9jgf6"><g style="opacity: 0.6; transform-origin: 222.161px 460.375px;" class="animable"><path d="M195.88,454.8l1.38-4.2L247,466.88s2,1.7,1.29,3.27Z" style="fill: rgb(255, 255, 255); transform-origin: 222.161px 460.375px;" id="ell4eddyc4pb" class="animable"></path></g></g><path d="M226.2,447c-.08.26-1.39,0-2.89.45s-2.49,1.33-2.7,1.16.61-1.53,2.44-2S226.33,446.82,226.2,447Z" style="fill: rgb(224, 224, 224); transform-origin: 223.393px 447.539px;" id="elouuy50xnwk" class="animable"></path><path d="M231,450.93c0,.26-1.25.37-2.43,1.2s-1.77,1.9-2,1.81,0-1.58,1.51-2.58S231.1,450.68,231,450.93Z" style="fill: rgb(224, 224, 224); transform-origin: 228.749px 452.31px;" id="elwabtczm2dsg" class="animable"></path><path d="M232.23,458.42c-.25,0-.23-1.4.84-2.61s2.43-1.41,2.47-1.17-.91.78-1.77,1.79S232.49,458.47,232.23,458.42Z" style="fill: rgb(224, 224, 224); transform-origin: 233.82px 456.486px;" id="el1vrmq5qxnrn" class="animable"></path><path d="M227.55,440.73c-.18.2-1.25-.5-2.72-.82s-2.74-.2-2.81-.46,1.29-.85,3-.44S227.73,440.57,227.55,440.73Z" style="fill: rgb(224, 224, 224); transform-origin: 224.794px 439.817px;" id="eld8jubxaha7d" class="animable"></path><path d="M242.5,427.25l-1.11,28.13s28.22,10.57,28.52,15.79L215.3,471l-.08-43.9Z" style="fill: rgb(38, 50, 56); transform-origin: 242.565px 449.135px;" id="eljk5dn6wgqr" class="animable"></path><path d="M224.51,453a2.24,2.24,0,0,0-1.55,2.54,2.14,2.14,0,0,0,2.51,1.56,2.34,2.34,0,0,0,1.62-2.7,2.22,2.22,0,0,0-2.78-1.33" style="fill: rgb(224, 224, 224); transform-origin: 225.03px 455.051px;" id="el1574lcipupr" class="animable"></path><g id="elnivx5aa9sa7"><g style="opacity: 0.6; transform-origin: 242.616px 468.885px;" class="animable"><path d="M215.3,471l.16-4.42,52.3,1.83s2.43,1.06,2.15,2.78Z" style="fill: rgb(255, 255, 255); transform-origin: 242.616px 468.885px;" id="eluwfsz3l9kbk" class="animable"></path></g></g><path d="M242.28,455.1c0,.27-1.35.39-2.66,1.24s-2,2-2.26,1.86.15-1.64,1.76-2.65S242.34,454.86,242.28,455.1Z" style="fill: rgb(255, 255, 255); transform-origin: 239.785px 456.533px;" id="elbefkkrhghi" class="animable"></path><path d="M248,457.49c.06.26-1.1.71-2,1.83s-1.17,2.32-1.44,2.31-.43-1.52.73-2.9S248,457.24,248,457.49Z" style="fill: rgb(255, 255, 255); transform-origin: 246.184px 459.507px;" id="el8xvzgdt3rps" class="animable"></path><path d="M251.23,464.36c-.24.05-.61-1.28.08-2.74s1.94-2,2.05-1.81-.66,1-1.21,2.21S251.49,464.33,251.23,464.36Z" style="fill: rgb(255, 255, 255); transform-origin: 252.142px 462.067px;" id="eldj8vmtbmv7a" class="animable"></path><path d="M241.82,448.66c-.11.25-1.34-.13-2.84,0s-2.69.57-2.83.34,1-1.17,2.78-1.26S242,448.46,241.82,448.66Z" style="fill: rgb(255, 255, 255); transform-origin: 238.988px 448.399px;" id="elmaecu9c5c19" class="animable"></path><path d="M176.19,287.44s64,14.85,72.15,26.18c6.87,9.58-12.5,115.37-12.5,115.37l-35.25-2.51,4.72-92.86L132,310.31l11.08-28.16Z" style="fill: rgb(69, 90, 100); transform-origin: 190.907px 355.57px;" id="elr1o73c5myzd" class="animable"></path><path d="M181.77,297.47s66.91,16.26,73.68,27.82c3.16,5.39,1.08,23.09-.09,31.44-.8,5.63-12.63,84.4-12.63,84.4H213.8l.64-89h0l-69.53-14s-37.32,2.84-38.77-13.08L121.71,304l36.77-18.17Z" style="fill: rgb(69, 90, 100); transform-origin: 181.631px 363.48px;" id="elhdcuqc4yc2j" class="animable"></path><path d="M176.67,295.43l1,.25,2.84.79,10.91,3c4.74,1.33,10.54,3,17.24,4.94s14.3,4.4,22.53,7.52q6.18,2.31,12.78,5.26l3.31,1.51a29.85,29.85,0,0,1,3.26,1.81,20.86,20.86,0,0,1,3,2.29,11,11,0,0,1,2.44,3c2.26,10.25.89,21.46-.78,32.92-.73,5.77-1.67,11.66-2.56,17.68s-1.82,12.17-2.75,18.43c-1.88,12.52-3.82,25.48-5.8,38.75-.38,2.51-.75,5-1.13,7.5l0,.21H213.56v-.25c.26-33.72.5-64.26.69-89l.15.19-49.39-10-13.49-2.77L148,338.8l-1.2-.27,1.21.22,3.52.68,13.51,2.67L214.47,352l.15,0v.16c-.16,24.71-.36,55.24-.57,89l-.25-.25h28.93l-.24.21q.56-3.74,1.12-7.5c2-13.27,3.93-26.23,5.81-38.75q1.41-9.39,2.77-18.43c.89-6,1.83-11.91,2.57-17.67q.59-4.32,1.15-8.54a74,74,0,0,0,.73-8.32q.15-4.12,0-8.13-.08-2-.24-4a9.75,9.75,0,0,0-.77-3.73,10.69,10.69,0,0,0-2.34-2.93,21,21,0,0,0-3-2.25,32.68,32.68,0,0,0-3.21-1.79l-3.31-1.51q-6.57-3-12.74-5.29c-8.22-3.13-15.81-5.53-22.49-7.57s-12.48-3.66-17.21-5l-10.89-3.14-2.82-.84Z" style="fill: rgb(38, 50, 56); transform-origin: 201.983px 368.36px;" id="ell0w30773ao" class="animable"></path><path d="M186,194.81s8.34,3.39,13.09,14.93c3.34,8.11,21.89,33.72,21.89,33.72l49.34,10.95L272,270.15l-78.92-.65-11-34.92Z" style="fill: rgb(0, 255, 136); transform-origin: 227.04px 232.48px;" id="elj7247xm784a" class="animable"></path><path d="M184,190.45l7.62,8.3-15.77,81,6.73,9.26-76.45,36.08s-5.83-33-2.91-55.29c2.91-22.12,10.46-47.14,18.81-66.55,3.48-8.07,13.85-15.89,22-19.29l11.14-3.08,28.3,15.78Z" style="fill: rgb(0, 255, 136); transform-origin: 147.011px 252.985px;" id="el83ceam6h8r2" class="animable"></path><path d="M189,200.32a3.75,3.75,0,0,1-.07.71q-.12.78-.3,2c-.27,1.77-.69,4.33-1.26,7.47-1.11,6.3-2.79,15-4.78,24.53s-3.91,18.19-5.32,24.42c-.71,3.08-1.29,5.59-1.71,7.38l-.48,2a3.79,3.79,0,0,1-.21.69,4.62,4.62,0,0,1,.11-.72c.1-.5.23-1.18.4-2,.37-1.8.9-4.32,1.55-7.41,1.33-6.3,3.16-14.92,5.17-24.45s3.73-18.21,4.93-24.49c.59-3.1,1.07-5.63,1.41-7.44.16-.84.29-1.51.39-2A4.3,4.3,0,0,1,189,200.32Z" style="fill: rgb(38, 50, 56); transform-origin: 181.935px 234.92px;" id="el5j5a0ke1pw6" class="animable"></path><path d="M122,308.71a3,3,0,0,1,.45-.45l1.32-1.22c.58-.53,1.29-1.17,2.15-1.88s1.82-1.54,2.93-2.39c2.19-1.75,4.89-3.71,8-5.77s6.59-4.14,10.37-6.15,7.5-3.67,10.93-5.09,6.58-2.5,9.26-3.32c1.33-.44,2.56-.76,3.63-1.06s2-.55,2.76-.72l1.76-.41a3.37,3.37,0,0,1,.62-.11,3,3,0,0,1-.6.21l-1.73.49c-.76.21-1.68.47-2.74.8s-2.27.67-3.59,1.13c-2.66.87-5.78,2-9.2,3.41s-7.1,3.13-10.87,5.11-7.25,4.09-10.35,6.09-5.79,4-8,5.67c-1.13.82-2.1,1.64-3,2.32s-1.61,1.3-2.2,1.81l-1.39,1.15A2.82,2.82,0,0,1,122,308.71Z" style="fill: rgb(38, 50, 56); transform-origin: 149.09px 294.425px;" id="el9btgci219hd" class="animable"></path><path d="M160.06,280.76c.06.12-7.14,4.17-16.09,9s-16.25,8.73-16.32,8.61,7.14-4.17,16.09-9S160,280.64,160.06,280.76Z" style="fill: rgb(38, 50, 56); transform-origin: 143.855px 289.565px;" id="elcuusf10lrm8" class="animable"></path><g id="eluqjs8778m3"><g style="opacity: 0.3; transform-origin: 152.68px 245.145px;" class="animable"><path d="M134,222.26c4.6,19.87,18.65,37.67,37.36,45.77A443.27,443.27,0,0,1,134,222.26Z" id="el8svixortbia" class="animable" style="transform-origin: 152.68px 245.145px;"></path></g></g><g id="el1vd5uounen3"><g style="opacity: 0.3; transform-origin: 185.813px 220.35px;" class="animable"><path d="M187.84,207.14c1.81,8.41.47,18.92-3.75,26.42L183,231.37c1.49-6.31,3.63-17.53,4.81-24.23" id="elsh0hopt0a8c" class="animable" style="transform-origin: 185.813px 220.35px;"></path></g></g><path d="M269.34,255.19c.43-.64,6-7,7.45-7s3.19,1.7,3.19,1.7a5.54,5.54,0,0,1,3.19-.43c1.27.43,7.23,5.53,7.23,7.45v3.19a8.4,8.4,0,0,1,0,2.55c-.22,1.49-3.83,4-3.83,4H266.16s-3.9-2.63-3.41-5.1S269.34,255.19,269.34,255.19Z" style="fill: rgb(255, 191, 157); transform-origin: 276.602px 257.42px;" id="elcyq4qwvudtc" class="animable"></path><path d="M280,249.87a8.68,8.68,0,0,1,1.27.72l3.37,2.13a10.59,10.59,0,0,1,1.12.76,3,3,0,0,1,.82,1.28,6.08,6.08,0,0,1,.19,1.57c0,.53.05,1.07.08,1.62.11,2.24.23,4.68.35,7.24l.06,1.16v.2l-.19.05-1.25.31h-.06a2.64,2.64,0,0,1-1.6-.6,4.42,4.42,0,0,1-1-1.23,10.56,10.56,0,0,1-1.07-2.75,24.71,24.71,0,0,1-.71-4.9l.11.15-3.56-1.41a8,8,0,0,1-1.28-.57,7.57,7.57,0,0,1,1.34.4l3.62,1.26.11,0v.12a25.68,25.68,0,0,0,.78,4.81,10.73,10.73,0,0,0,1.05,2.61,2.77,2.77,0,0,0,2.23,1.59h-.06l1.25-.31-.19.25c0-.38,0-.77-.05-1.16-.11-2.56-.22-5-.31-7.24,0-.55,0-1.09-.07-1.62a5.61,5.61,0,0,0-.14-1.47,2.59,2.59,0,0,0-.69-1.12c-.31-.28-.71-.5-1.05-.75l-3.29-2.26A7.64,7.64,0,0,1,280,249.87Z" style="fill: rgb(255, 154, 108); transform-origin: 281.955px 258.39px;" id="el6a1rkgl8q5l" class="animable"></path><path d="M266.16,265.94a6.58,6.58,0,0,1,1.37-.18l3.72-.3h.06a41.86,41.86,0,0,0,4.2.76,23.58,23.58,0,0,0,2.45.2,2.72,2.72,0,0,0,2.24-.64,2,2,0,0,0,.36-1.25c0-.46-.07-.93-.09-1.43a1.75,1.75,0,0,0-.55-1.05,4.61,4.61,0,0,0-1-.76,7.76,7.76,0,0,0-4.38-.77,3.44,3.44,0,0,1-2.89-1.16c-.45-.64-.41-1.1-.38-1.09a3.33,3.33,0,0,0,.53,1,3.3,3.3,0,0,0,2.74.93,7.93,7.93,0,0,1,4.6.72,4.9,4.9,0,0,1,1.13.83,2.19,2.19,0,0,1,.7,1.37c0,.44.09.93.09,1.45a2.53,2.53,0,0,1-.46,1.55,2.2,2.2,0,0,1-1.29.73,5.66,5.66,0,0,1-1.35.08,21.73,21.73,0,0,1-2.5-.22,36.4,36.4,0,0,1-4.24-.85h.06l-3.73.14A6.28,6.28,0,0,1,266.16,265.94Z" style="fill: rgb(255, 154, 108); transform-origin: 273.611px 262.605px;" id="el8jlpw479fsg" class="animable"></path><path d="M287,265.85a33.86,33.86,0,0,1,1.64-3.7,16.88,16.88,0,0,1,1.88-3.6,17.63,17.63,0,0,1-1.43,3.8A11.53,11.53,0,0,1,287,265.85Z" style="fill: rgb(255, 154, 108); transform-origin: 288.76px 262.2px;" id="elbz07gtux8ls" class="animable"></path><path d="M133,220.82s36,49,41.6,49h52.55V249.87l-39.74-9.37s-19.57-40.5-23.9-45.69-15.91-12.17-24.56-4.38S133,220.82,133,220.82Z" style="fill: rgb(0, 255, 136); transform-origin: 179.876px 228.383px;" id="elwux67kaoa3" class="animable"></path><path d="M227.07,251.79l8.61-.69s.19-3.19,2.07-4.32,1.69-3.57,2.82-3.38a4.87,4.87,0,0,0,1.88,0l7.14-6,6-3.94,4.7-.94s2.82.75,0,3.38l-3,1.69-2.63,2.63,6-2.95a2,2,0,0,1,1.77,0,25.27,25.27,0,0,1,4.62,2.59,1.3,1.3,0,0,1,0,1.88L269.7,244s.56,3-2.45,2.26l-2.44-.57-3.19,3.2s10.9-2.26,11.65-1.88a2.14,2.14,0,0,1,0,3.57c-1.69,1.5-8.27,1.13-9.77,2.63s-11.45,10.58-13.89,11.15-22.5,5.46-22.5,5.46Z" style="fill: rgb(255, 191, 157); transform-origin: 250.65px 251.17px;" id="el0y9jtyf8s8e" class="animable"></path><path d="M269.7,244a11,11,0,0,1-1.48-1.05c-.45-.33-1-.72-1.6-1.13-.3-.21-.62-.42-1-.62a2.21,2.21,0,0,0-1-.42,6.23,6.23,0,0,0-2.1.88c-.64.35-1.22.68-1.7,1a9,9,0,0,1-1.59.88,5.43,5.43,0,0,1,1.4-1.17c.46-.32,1-.69,1.67-1.07.32-.19.66-.38,1-.57a3,3,0,0,1,1.28-.4,1.13,1.13,0,0,1,.39.05l.33.13c.2.1.38.21.55.31.35.22.68.45,1,.67.6.44,1.12.86,1.55,1.23C269.29,243.37,269.76,243.91,269.7,244Z" style="fill: rgb(255, 154, 108); transform-origin: 264.468px 242.164px;" id="el9knkxc47of9" class="animable"></path><path d="M243.3,242.67c.08.12-.82.89-1.85,1.89s-1.9,1.84-2,1.74a6.58,6.58,0,0,1,1.66-2.09A5.44,5.44,0,0,1,243.3,242.67Z" style="fill: rgb(255, 154, 108); transform-origin: 241.377px 244.489px;" id="el77lxrm8gepv" class="animable"></path><path d="M163.47,194.81a23.88,23.88,0,0,1,2.08,3c1.24,2,3,5.12,5.1,9.09,4.24,7.95,10.07,19.46,16.9,33.48l-.14-.11,39.75,9.33.19.05v.19c0,6.4,0,13.08,0,19.91V270H175a3.85,3.85,0,0,1-.66,0,2.61,2.61,0,0,1-.65-.21,8.3,8.3,0,0,1-1.09-.66,21.23,21.23,0,0,1-1.92-1.58,92.73,92.73,0,0,1-6.55-6.85c-4-4.59-7.61-9-10.85-13.07-6.46-8.13-11.51-14.85-15-19.5l-4-5.38-1-1.41c-.23-.32-.34-.49-.34-.49s.14.15.38.46l1,1.38,4,5.32c3.52,4.62,8.61,11.3,15.1,19.4,3.26,4,6.85,8.45,10.88,13a94.25,94.25,0,0,0,6.54,6.8,21.38,21.38,0,0,0,1.88,1.54,7.15,7.15,0,0,0,1,.61,2,2,0,0,0,1.12.21h5.08l44.66,0h2.39l-.25.25c0-6.83,0-13.51,0-19.91l.18.24-39.73-9.41-.1,0,0-.08c-6.79-14-12.57-25.57-16.74-33.55-2.07-4-3.79-7.07-5-9.14-.62-1-1.08-1.82-1.45-2.31S163.47,194.81,163.47,194.81Z" style="fill: rgb(38, 50, 56); transform-origin: 180.145px 232.412px;" id="ellyqqu2iz4b" class="animable"></path><path d="M158.24,191.61c0,.08-1.23-.41-3.25-.86a23.89,23.89,0,0,0-3.58-.54,27.31,27.31,0,0,0-4.42,0,27.92,27.92,0,0,0-4.35.79,26.57,26.57,0,0,0-3.42,1.21c-1.89.82-3,1.52-3,1.45s.24-.23.73-.55a15.9,15.9,0,0,1,2.16-1.22,21.47,21.47,0,0,1,3.43-1.32,25.79,25.79,0,0,1,4.43-.85,25.13,25.13,0,0,1,4.51,0,23.08,23.08,0,0,1,3.63.66,16,16,0,0,1,2.34.79A2.89,2.89,0,0,1,158.24,191.61Z" style="fill: rgb(38, 50, 56); transform-origin: 147.23px 191.642px;" id="elm4rdaaxv4n" class="animable"></path><path d="M180.14,249.55a18.1,18.1,0,0,1,6.59-8.27c.1.11-1.72,1.66-3.53,3.95S180.27,249.62,180.14,249.55Z" style="fill: rgb(38, 50, 56); transform-origin: 183.437px 245.416px;" id="eln3986t9s3t9" class="animable"></path><path d="M178.93,243.45a7.86,7.86,0,0,1,3.41-2,8.09,8.09,0,0,1,3.91-.6c0,.15-1.73.34-3.75,1.07S179,243.57,178.93,243.45Z" style="fill: rgb(38, 50, 56); transform-origin: 182.59px 242.137px;" id="elkoomzhauein" class="animable"></path><path d="M155.43,141.4l0,.92h3.25c2.84-28.58,18.18-30.46,17.84-30.71a4.06,4.06,0,0,1,1.27-3.38C156.21,110.79,155.27,140.94,155.43,141.4Z" style="fill: rgb(69, 90, 100); transform-origin: 166.603px 125.275px;" id="elpkwclt64ch" class="animable"></path><circle cx="154.38" cy="150.79" r="11.28" style="fill: rgb(69, 90, 100); transform-origin: 154.38px 150.79px;" id="elc4trlyxgva" class="animable"></circle><path d="M160.55,150.48c-.05,0,0-.51-.27-1.37a5.7,5.7,0,0,0-2.09-3,5.48,5.48,0,1,0,0,8.78,5.78,5.78,0,0,0,2.09-3c.24-.86.22-1.38.27-1.37s0,.12,0,.36a4.29,4.29,0,0,1-.12,1.06,5.67,5.67,0,0,1-2.06,3.26,5.86,5.86,0,0,1-5.59.9,5.74,5.74,0,0,1-2.77-2.06,5.9,5.9,0,0,1,0-7.05,5.89,5.89,0,0,1,8.36-1.16,5.66,5.66,0,0,1,2.06,3.27,4.27,4.27,0,0,1,.12,1.05C160.58,150.35,160.57,150.48,160.55,150.48Z" style="fill: rgb(38, 50, 56); transform-origin: 154.707px 150.517px;" id="el1m7897cpu9k" class="animable"></path><path d="M90.1,293.26l1,4.34H183a3.71,3.71,0,0,0,3.66-3.11h0a3.69,3.69,0,0,0-2.12-4c-5.83-2.67-21.89-8.48-50.56-8.14-40.65.47-43.87,6.87-43.87,6.87Z" style="fill: rgb(38, 50, 56); transform-origin: 138.408px 289.968px;" id="el7yjobz4twl" class="animable"></path><path d="M155.67,294c-.18,1.4-15.37,53-15.37,53H124.59l15.17-53Z" style="fill: rgb(38, 50, 56); transform-origin: 140.13px 320.5px;" id="el6cgdyoq0g9p" class="animable"></path><path d="M184.57,297.6c0,.14-20.68.26-46.17.26s-46.16-.12-46.16-.26,20.66-.27,46.16-.27S184.57,297.45,184.57,297.6Z" style="fill: rgb(69, 90, 100); transform-origin: 138.405px 297.595px;" id="elr9ltenvn5nj" class="animable"></path></g><g id="freepik--Desk--inject-33" class="animable" style="transform-origin: 230px 300.3px;"><path d="M357.06,204.14c-.1.55,17.44,64.95,17.44,64.95l-28,.09-.13,2.93H380l-19.09-74.7Z" style="fill: rgb(224, 224, 224); transform-origin: 363.185px 234.76px;" id="el9xii4ddiwfr" class="animable"></path><path d="M357.06,204.14s.07-.15.23-.44l.7-1.29,2.82-5,.12-.2.06.23c3.23,12.54,10.42,40.44,19.23,74.66l.09.32H346.09v-.27c0-1,.09-2,.13-2.93v-.25h.25l28-.07-.23.31c-5.12-19.06-9.49-35.29-12.57-46.78L358.19,209c-.38-1.55-.68-2.75-.88-3.58-.1-.4-.16-.73-.2-.94s-.05-.31-.05-.31c.28,1,1.88,6.93,4.92,18.17,3.13,11.47,7.56,27.69,12.75,46.72l.09.3h-.32l-28,.11.26-.25c0,1-.09,1.95-.13,2.94l-.26-.28H380l-.25.32C371.06,237.92,364,210,360.8,197.44l.18,0c-1.27,2.17-2.23,3.84-2.9,5l-.75,1.27C357.16,204,357.06,204.14,357.06,204.14Z" style="fill: rgb(38, 50, 56); transform-origin: 363.2px 234.815px;" id="el2iyy3bdre38" class="animable"></path><g id="el5co84gu7hwi"><rect x="299.51" y="184.13" width="121.57" height="7.14" style="fill: rgb(224, 224, 224); transform-origin: 360.295px 187.7px; transform: rotate(-72.67deg);" class="animable"></rect></g><path d="M338.78,244.66l.16-.58c.12-.41.3-1,.52-1.73.48-1.54,1.16-3.79,2.05-6.68,1.8-5.83,4.4-14.26,7.63-24.71l25.61-82.43.08-.25.25.08,6.81,2.13h0l.25.08-.08.24c-16.93,54.27-31.37,100.29-36.39,116l0,.08-.08,0-5.14-1.65-1.25-.41-.4-.14.44.12,1.27.38,5.13,1.55-.1,0c4.81-15.78,19.11-61.84,36-116.1l.18.33h0l-6.81-2.12.33-.17C365.12,161,356,190,349.48,210.87l-7.79,24.72c-.93,2.91-1.64,5.17-2.14,6.72-.24.75-.43,1.33-.56,1.75S338.78,244.66,338.78,244.66Z" style="fill: rgb(38, 50, 56); transform-origin: 360.46px 187.585px;" id="el7pmi7onp76a" class="animable"></path><rect x="244.06" y="266.67" width="72.08" height="5.34" style="fill: rgb(224, 224, 224); transform-origin: 280.1px 269.34px;" id="el4sknamqobi9" class="animable"></rect><path d="M316.15,272a2.81,2.81,0,0,1,0-.36c0-.25,0-.59,0-1,0-.92,0-2.24-.05-4l.09.09c-11,.1-39.13.17-72.08.17h0c.11-.12-.27.26.25-.26h0V272l-.26-.26,51.07.11,15.36.07,4.18,0,1.09,0a1.81,1.81,0,0,1,.39,0l-.35,0h-1.06l-4.12,0-15.29.08-51.27.11h-.26v-5.58h0c.52-.52.15-.15.27-.26h0c32.95,0,61.09.07,72.08.16h.09v.09c0,1.75,0,3.08-.05,4,0,.43,0,.76,0,1S316.15,272,316.15,272Z" style="fill: rgb(38, 50, 56); transform-origin: 280.06px 269.177px;" id="elgs4ny8q8zw8" class="animable"></path><path d="M291.27,272.27a14,14,0,0,1,0-5.37,14,14,0,0,1,0,5.37Z" style="fill: rgb(38, 50, 56); transform-origin: 291.27px 269.585px;" id="elm2urtghjmr" class="animable"></path><rect x="134.55" y="284.25" width="11.17" height="188.07" style="fill: rgb(69, 90, 100); transform-origin: 140.135px 378.285px;" id="el8iherhplrrg" class="animable"></rect><path d="M145.71,472.32s0-.34,0-1,0-1.6,0-2.83c0-2.5,0-6.17,0-10.89,0-9.45,0-23.12-.08-40.08,0-33.88-.07-80.86-.11-133.29l.26.26H134.55l.26-.26c-.09,87.91-.16,162.46-.18,188.07l-.08-.09,8.39,0,2.08,0,.69,0H145l-2.06,0-8.43,0h-.09v-.08c0-25.61-.09-100.16-.18-188.07V284H146v.26c0,52.5-.09,99.55-.11,133.48,0,16.93-.06,30.59-.08,40,0,4.69,0,8.33,0,10.82,0,1.22,0,2.15,0,2.8S145.71,472.32,145.71,472.32Z" style="fill: rgb(38, 50, 56); transform-origin: 140.12px 378.16px;" id="ellwqhrh520u" class="animable"></path><rect x="348.86" y="280.52" width="11.17" height="191.8" style="fill: rgb(69, 90, 100); transform-origin: 354.445px 376.42px;" id="el4ph6mulago" class="animable"></rect><path d="M360,472.32s0-.35,0-1,0-1.63,0-2.89c0-2.55,0-6.28,0-11.1,0-9.64,0-23.59-.08-40.88,0-34.56-.07-82.47-.11-135.93l.26.26H348.86l.27-.26C349,370.17,349,446.2,349,472.32l-.09-.09,8.4,0,2.07,0,.7,0h-.67l-2.06,0-8.44,0h-.08v-.08c0-26.12-.1-102.15-.18-191.8v-.27h11.7v.27c-.05,53.54-.09,101.52-.11,136.13,0,17.26-.06,31.19-.08,40.81,0,4.79,0,8.51,0,11,0,1.25,0,2.2,0,2.86S360,472.32,360,472.32Z" style="fill: rgb(38, 50, 56); transform-origin: 354.5px 376.2px;" id="elxbm5z9rezpq" class="animable"></path><rect x="54.24" y="272.01" width="351.69" height="11.72" style="fill: rgb(69, 90, 100); transform-origin: 230.085px 277.87px;" id="elzobi5wmy1b" class="animable"></rect><path d="M405.92,283.73c0-.43,0-3.77-.06-11.72l.06.06-351.66.2h0l.26-.26v11.72l-.26-.26,249,.1,75.11.08,20.4,0,5.31,0c1.2,0,1.82,0,1.82,0h-1.78l-5.27,0-20.34,0-75.06.08L54.24,284H54V271.75h.28l351.66.19H406V272c0,4,0,6.95,0,8.89S405.92,283.73,405.92,283.73Z" style="fill: rgb(38, 50, 56); transform-origin: 230px 277.875px;" id="ele7lqbe2qzcl" class="animable"></path><path d="M226.63,283.39a31.78,31.78,0,0,1-.26-5.69,31.68,31.68,0,0,1,.26-5.69,30.61,30.61,0,0,1,.26,5.69A30.7,30.7,0,0,1,226.63,283.39Z" style="fill: rgb(38, 50, 56); transform-origin: 226.632px 277.7px;" id="elhg5fd4asgug" class="animable"></path></g><defs>     <filter id="active" height="200%">         <feMorphology in="SourceAlpha" result="DILATED" operator="dilate" radius="2"></feMorphology>                <feFlood flood-color="#32DFEC" flood-opacity="1" result="PINK"></feFlood>        <feComposite in="PINK" in2="DILATED" operator="in" result="OUTLINE"></feComposite>        <feMerge>            <feMergeNode in="OUTLINE"></feMergeNode>            <feMergeNode in="SourceGraphic"></feMergeNode>        </feMerge>    </filter>    <filter id="hover" height="200%">        <feMorphology in="SourceAlpha" result="DILATED" operator="dilate" radius="2"></feMorphology>                <feFlood flood-color="#ff0000" flood-opacity="0.5" result="PINK"></feFlood>        <feComposite in="PINK" in2="DILATED" operator="in" result="OUTLINE"></feComposite>        <feMerge>            <feMergeNode in="OUTLINE"></feMergeNode>            <feMergeNode in="SourceGraphic"></feMergeNode>        </feMerge>            <feColorMatrix type="matrix" values="0   0   0   0   0                0   1   0   0   0                0   0   0   0   0                0   0   0   1   0 "></feColorMatrix>    </filter></defs></svg>