<svg class="animated" id="freepik_stories-digital-lifestyle" xmlns="http://www.w3.org/2000/svg" viewBox="0 0 500 500" version="1.1" xmlns:xlink="http://www.w3.org/1999/xlink" xmlns:svgjs="http://svgjs.com/svgjs"><style>svg#freepik_stories-digital-lifestyle:not(.animated) .animable {opacity: 0;}svg#freepik_stories-digital-lifestyle.animated #freepik--background-complete--inject-151 {animation: 1.5s Infinite  linear shake;animation-delay: 0s;}svg#freepik_stories-digital-lifestyle.animated #freepik--Windows--inject-151 {animation: 3s Infinite  linear shake;animation-delay: 0s;}svg#freepik_stories-digital-lifestyle.animated #freepik--Icons--inject-151 {animation: 3s Infinite  linear wind;animation-delay: 0s;}            @keyframes shake {                10%, 90% {                    transform: translate3d(-1px, 0, 0);                  }                  20%, 80% {                    transform: translate3d(2px, 0, 0);                  }                  30%, 50%, 70% {                    transform: translate3d(-4px, 0, 0);                  }                  40%, 60% {                    transform: translate3d(4px, 0, 0);                  }            }                    @keyframes wind {                0% {                    transform: rotate( 0deg );                }                25% {                    transform: rotate( 1deg );                }                75% {                    transform: rotate( -1deg );                }            }        </style><g id="freepik--background-complete--inject-151" class="animable" style="transform-origin: 250px 228.23px;"><rect x="416.78" y="398.49" width="33.12" height="0.25" style="fill: rgb(235, 235, 235); transform-origin: 433.34px 398.615px;" id="ela782xj36tgm" class="animable"></rect><rect x="322.53" y="401.21" width="8.69" height="0.25" style="fill: rgb(235, 235, 235); transform-origin: 326.875px 401.335px;" id="eltpvuu686kv7" class="animable"></rect><rect x="396.59" y="389.21" width="19.19" height="0.25" style="fill: rgb(235, 235, 235); transform-origin: 406.185px 389.335px;" id="elha424w2kjsq" class="animable"></rect><rect x="52.46" y="390.89" width="43.19" height="0.25" style="fill: rgb(235, 235, 235); transform-origin: 74.055px 391.015px;" id="elkz173mqerk7" class="animable"></rect><rect x="104.56" y="390.89" width="6.33" height="0.25" style="fill: rgb(235, 235, 235); transform-origin: 107.725px 391.015px;" id="elccc8g4j2z9g" class="animable"></rect><rect x="131.47" y="395.11" width="93.68" height="0.25" style="fill: rgb(235, 235, 235); transform-origin: 178.31px 395.235px;" id="elv1yve1mbzj" class="animable"></rect><path d="M237,337.8H43.92a5.71,5.71,0,0,1-5.71-5.71V60.66A5.71,5.71,0,0,1,43.92,55H237a5.71,5.71,0,0,1,5.71,5.71V332.09A5.71,5.71,0,0,1,237,337.8ZM43.92,55.2a5.47,5.47,0,0,0-5.46,5.46V332.09a5.47,5.47,0,0,0,5.46,5.46H237a5.47,5.47,0,0,0,5.46-5.46V60.66A5.47,5.47,0,0,0,237,55.2Z" style="fill: rgb(235, 235, 235); transform-origin: 140.46px 196.4px;" id="elfvb0ovl9tgl" class="animable"></path><path d="M453.31,337.8H260.21a5.72,5.72,0,0,1-5.71-5.71V60.66A5.72,5.72,0,0,1,260.21,55h193.1A5.71,5.71,0,0,1,459,60.66V332.09A5.71,5.71,0,0,1,453.31,337.8ZM260.21,55.2a5.47,5.47,0,0,0-5.46,5.46V332.09a5.47,5.47,0,0,0,5.46,5.46h193.1a5.47,5.47,0,0,0,5.46-5.46V60.66a5.47,5.47,0,0,0-5.46-5.46Z" style="fill: rgb(235, 235, 235); transform-origin: 356.75px 196.4px;" id="el50n7ys6o9pc" class="animable"></path><rect y="382.4" width="500" height="0.25" style="fill: rgb(235, 235, 235); transform-origin: 250px 382.525px;" id="el4cffy8a3zlt" class="animable"></rect><g id="ele7844p56cq"><circle cx="409.3" cy="228.32" r="19.84" style="fill: rgb(224, 224, 224); transform-origin: 409.3px 228.32px; transform: rotate(-13.28deg);" class="animable"></circle></g><g id="elgqrf30v4pt9"><circle cx="412.39" cy="228.32" r="19.84" style="fill: rgb(240, 240, 240); transform-origin: 412.39px 228.32px; transform: rotate(-13.28deg);" class="animable"></circle></g><g id="el80oiluebnrg"><circle cx="412.39" cy="228.32" r="15.25" style="fill: rgb(245, 245, 245); transform-origin: 412.39px 228.32px; transform: rotate(-22.5deg);" class="animable"></circle></g><path d="M425.32,228.32a15.24,15.24,0,0,0-14.09-15.19c.38,0,.76-.06,1.16-.06a15.25,15.25,0,0,1,0,30.5c-.4,0-.78,0-1.16,0A15.25,15.25,0,0,0,425.32,228.32Z" style="fill: rgb(224, 224, 224); transform-origin: 419.435px 228.32px;" id="ela6ngy81kk6" class="animable"></path><polygon points="412.39 218.62 410.21 225.32 403.16 225.32 408.86 229.47 406.68 236.17 412.39 232.03 418.09 236.17 415.91 229.47 421.61 225.32 414.56 225.32 412.39 218.62" style="fill: rgb(230, 230, 230); transform-origin: 412.385px 227.395px;" id="elw0d2k18x5ef" class="animable"></polygon><g id="el8iemlmxft42"><rect x="352.07" y="320.15" width="73.55" height="24.25" rx="6.86" style="fill: rgb(235, 235, 235); transform-origin: 388.845px 332.275px; transform: rotate(-12deg);" class="animable"></rect></g><path d="M389.63,325.24a6.33,6.33,0,1,0,1.12,9.68,1.51,1.51,0,0,0,.58.77l5.06,3.29a1.52,1.52,0,0,0,2.09-.44,1.5,1.5,0,0,0-.44-2.09L393,333.16a1.48,1.48,0,0,0-.93-.22A6.34,6.34,0,0,0,389.63,325.24ZM390,333a4.5,4.5,0,1,1-1.33-6.22A4.51,4.51,0,0,1,390,333Z" style="fill: rgb(250, 250, 250); transform-origin: 389.287px 331.718px;" id="elsd29xnfvwqq" class="animable"></path><path d="M123.82,322.42a17.11,17.11,0,0,0-10.63,21.73c2.38,6.93,16.48,16.32,22.68,20.18A2.85,2.85,0,0,0,140,362.9c2.53-6.85,7.9-22.91,5.52-29.85A17.11,17.11,0,0,0,123.82,322.42ZM132,346.31A8.14,8.14,0,1,1,137.08,336,8.14,8.14,0,0,1,132,346.31Z" style="fill: rgb(235, 235, 235); transform-origin: 129.19px 343.121px;" id="el8cqtkh5f6rc" class="animable"></path><path d="M120.83,137.46h-8.14a5.72,5.72,0,0,0-4.77,2.56l-1.19,1.8a5.25,5.25,0,0,1-4.37,2.35h-21a3.4,3.4,0,0,0-3.41,3.41v32.81h47.37V144.17l-.42-3.15A4.08,4.08,0,0,0,120.83,137.46Z" style="fill: rgb(224, 224, 224); transform-origin: 101.635px 158.925px;" id="ellqk2kg7c21" class="animable"></path><rect x="81.49" y="148.31" width="40.27" height="27.54" style="fill: rgb(250, 250, 250); transform-origin: 101.625px 162.08px;" id="elav7df4gjm5s" class="animable"></rect><path d="M125.31,180.39H77.94l-7-25.31a3,3,0,0,1,2.9-3.81h38.83a6,6,0,0,1,5.82,4.44Z" style="fill: rgb(240, 240, 240); transform-origin: 98.0693px 165.83px;" id="elj0zgboux7n" class="animable"></path><path d="M196,105.44h33.7A3.36,3.36,0,0,0,233,102H192.69A3.36,3.36,0,0,0,196,105.44Z" style="fill: rgb(224, 224, 224); transform-origin: 212.845px 103.72px;" id="eloxbwr0c7kd9" class="animable"></path><path d="M219.52,105.44h33.7A3.36,3.36,0,0,0,256.5,102H216.23A3.36,3.36,0,0,0,219.52,105.44Z" style="fill: rgb(240, 240, 240); transform-origin: 236.365px 103.72px;" id="el9npxd16ody" class="animable"></path><path d="M195.7,104.39h20.54a.81.81,0,0,0,.74-1.08L205.71,69.68a2.22,2.22,0,0,0-2.09-1.55H183.08a.81.81,0,0,0-.74,1.08l11.27,33.63A2.22,2.22,0,0,0,195.7,104.39Z" style="fill: rgb(224, 224, 224); transform-origin: 199.66px 86.26px;" id="el301f3lf8zpx" class="animable"></path><path d="M194.71,104.39h20.54a.81.81,0,0,0,.74-1.08L204.72,69.68a2.22,2.22,0,0,0-2.09-1.55H182.09a.81.81,0,0,0-.74,1.08l11.27,33.63A2.22,2.22,0,0,0,194.71,104.39Z" style="fill: rgb(240, 240, 240); transform-origin: 198.67px 86.26px;" id="elh2mig3bo5qr" class="animable"></path><path d="M197,86.26c.27,1.29,1.12,2.34,1.91,2.34s1.22-1,1-2.34-1.12-2.33-1.91-2.33S196.74,85,197,86.26Z" style="fill: rgb(255, 255, 255); transform-origin: 198.448px 86.265px;" id="elt88ktbr1xgn" class="animable"></path><path d="M241.65,85.77a9.85,9.85,0,1,0-15,3l-.45,5.13,4-3.24A9.84,9.84,0,0,0,241.65,85.77Z" style="fill: rgb(224, 224, 224); transform-origin: 232.933px 82.6169px;" id="el593rj9hi1ew" class="animable"></path><path d="M238.74,77.17h-11a.39.39,0,0,0-.39.39v7.82a.38.38,0,0,0,.39.39h11a.38.38,0,0,0,.39-.39V77.56A.39.39,0,0,0,238.74,77.17Zm-.18,7.62-3.32-3.32,3.32-3.32Zm-.41-7-3.32,3.31-1.61,1.62-4.93-4.93Zm-10.26.4,3.31,3.32-3.31,3.32Zm.4,7,3.32-3.32,1.61,1.61,1.61-1.61,3.32,3.32Z" style="fill: rgb(250, 250, 250); transform-origin: 233.24px 81.4701px;" id="elcnr8qaos99a" class="animable"></path><polygon points="403.08 176.85 387.45 165.11 403.08 153.37 404.38 155.1 391.05 165.11 404.38 175.12 403.08 176.85" style="fill: rgb(224, 224, 224); transform-origin: 395.915px 165.11px;" id="elbvu87wp8k3" class="animable"></polygon><circle cx="389.25" cy="165.11" r="3.06" style="fill: rgb(235, 235, 235); transform-origin: 389.25px 165.11px;" id="elqhh6nxdni3" class="animable"></circle><path d="M407,154.24a3.06,3.06,0,1,1-3.06-3.06A3.06,3.06,0,0,1,407,154.24Z" style="fill: rgb(235, 235, 235); transform-origin: 403.94px 154.24px;" id="elfq21xdkjqc4" class="animable"></path><circle cx="403.92" cy="176.21" r="3.06" style="fill: rgb(235, 235, 235); transform-origin: 403.92px 176.21px;" id="eluk70lelg5fq" class="animable"></circle></g><g id="freepik--Shadow--inject-151" class="animable" style="transform-origin: 245.18px 412.39px;"><ellipse id="freepik--path--inject-151" cx="245.18" cy="412.39" rx="193.89" ry="11.32" style="fill: rgb(245, 245, 245); transform-origin: 245.18px 412.39px;" class="animable"></ellipse></g><g id="freepik--Device--inject-151" class="animable" style="transform-origin: 242.938px 269.71px;"><path d="M179.9,133.21h23.68l23.88,273H203.78a22.13,22.13,0,0,1-21.62-19.88l-20.4-233.25A17.92,17.92,0,0,1,179.9,133.21Z" style="fill: rgb(38, 50, 56); transform-origin: 194.557px 269.709px;" id="el7z90skduoyi" class="animable"></path><path d="M165.23,160.59a2.12,2.12,0,0,0-2.07-1.91,1.72,1.72,0,0,0-1.74,1.91l1.6,18.29a2.12,2.12,0,0,0,2.07,1.9,1.72,1.72,0,0,0,1.74-1.9Z" style="fill: rgb(16, 30, 174); transform-origin: 164.124px 169.73px;" id="elwszevtwfq8" class="animable"></path><g id="eltooibn1fb5"><path d="M165.23,160.59a2.12,2.12,0,0,0-2.07-1.91,1.72,1.72,0,0,0-1.74,1.91l1.6,18.29a2.12,2.12,0,0,0,2.07,1.9,1.72,1.72,0,0,0,1.74-1.9Z" style="fill: rgb(255, 255, 255); opacity: 0.3; transform-origin: 164.124px 169.73px;" class="animable"></path></g><path d="M208.63,406.21h97.59a17.93,17.93,0,0,0,18.14-19.88L304,153.08a22.13,22.13,0,0,0-21.62-19.87H184.75a17.92,17.92,0,0,0-18.14,19.87L187,386.33A22.13,22.13,0,0,0,208.63,406.21Z" style="fill: rgb(16, 30, 174); transform-origin: 245.485px 269.71px;" id="elgaz8nt1bsfw" class="animable"></path><path d="M185.14,137.77h25.37a3.69,3.69,0,0,1,3.53,2.88l.17.79a9,9,0,0,0,8.61,7h24.11a7.23,7.23,0,0,0,7.38-7l0-.79a3,3,0,0,1,3-2.88h25.36a17,17,0,0,1,16.66,15.31l20.4,233.25a13.81,13.81,0,0,1-14,15.32H208.23a17.06,17.06,0,0,1-16.66-15.32l-20.4-233.25A13.81,13.81,0,0,1,185.14,137.77Z" style="fill: rgb(16, 30, 174); transform-origin: 245.451px 269.71px;" id="elqm1rmpm34qp" class="animable"></path><g id="el696gbt5amke"><path d="M185.14,137.77h25.37a3.69,3.69,0,0,1,3.53,2.88l.17.79a9,9,0,0,0,8.61,7h24.11a7.23,7.23,0,0,0,7.38-7l0-.79a3,3,0,0,1,3-2.88h25.36a17,17,0,0,1,16.66,15.31l20.4,233.25a13.81,13.81,0,0,1-14,15.32H208.23a17.06,17.06,0,0,1-16.66-15.32l-20.4-233.25A13.81,13.81,0,0,1,185.14,137.77Z" style="fill: rgb(255, 255, 255); opacity: 0.9; transform-origin: 245.451px 269.71px;" class="animable"></path></g><g id="elssm1497ytu"><g style="opacity: 0.2; transform-origin: 234.164px 140.35px;" class="animable"><path d="M240.07,140.35a2.15,2.15,0,0,0,2.1,1.94,1.75,1.75,0,0,0,1.77-1.94,2.15,2.15,0,0,0-2.1-1.94A1.74,1.74,0,0,0,240.07,140.35Z" id="el2qij6xas09w" class="animable" style="transform-origin: 242.004px 140.35px;"></path><path d="M226.15,138.41h6.65a2.17,2.17,0,0,1,2.11,1.94,1.75,1.75,0,0,1-1.77,1.94h-6.65a2.15,2.15,0,0,1-2.1-1.94A1.74,1.74,0,0,1,226.15,138.41Z" id="eljtpox54kh8" class="animable" style="transform-origin: 229.649px 140.35px;"></path></g></g><g id="el10hr28rz6tml"><g style="opacity: 0.2; transform-origin: 282.96px 145.37px;" class="animable"><polygon points="288.36 148.45 286.31 148.45 286.13 146.39 288.18 146.39 288.36 148.45" id="eldct7kylzbc" class="animable" style="transform-origin: 287.245px 147.42px;"></polygon><polygon points="284.08 146.39 284.26 148.45 282.2 148.45 282.02 146.39 281.85 144.34 283.9 144.34 284.08 146.39" id="elwoa95begl6i" class="animable" style="transform-origin: 283.055px 146.395px;"></polygon><polygon points="279.61 142.29 279.79 144.34 279.97 146.39 280.15 148.45 278.1 148.45 277.92 146.39 277.74 144.34 277.56 142.29 279.61 142.29" id="elag19gii43aw" class="animable" style="transform-origin: 278.855px 145.37px;"></polygon></g></g><g id="elsso00f6y0tm"><path d="M182.34,142.43l.53,6h9l-.13-1.51h1l-.26-3h-1l-.14-1.5Zm5.15,1.5h3l.27,3h-3Z" style="opacity: 0.2; transform-origin: 187.54px 145.425px;" class="animable"></path></g><g id="el82xd7ezzhm9"><g style="opacity: 0.2; transform-origin: 256.14px 393.53px;" class="animable"><path d="M226.93,394.91h58.66c1.78,0,1.54-2.76-.24-2.76H226.69c-1.78,0-1.54,2.76.24,2.76Z" id="el4chrj9432ff" class="animable" style="transform-origin: 256.14px 393.53px;"></path></g></g></g><g id="freepik--Windows--inject-151" class="animable" style="transform-origin: 318.724px 195.535px;"><path d="M355.48,237.35H292.82a6.45,6.45,0,0,1-6.53-7.16l3.37-38.61a8,8,0,0,1,7.79-7.15h62.66a6.46,6.46,0,0,1,6.54,7.15l-3.38,38.61A8,8,0,0,1,355.48,237.35Z" style="fill: rgb(16, 30, 174); transform-origin: 326.469px 210.89px;" id="eltmnrcwxwuk" class="animable"></path><g id="elfju6nq1kue"><path d="M355.48,237.35H292.82a6.45,6.45,0,0,1-6.53-7.16l3.37-38.61a8,8,0,0,1,7.79-7.15h62.66a6.46,6.46,0,0,1,6.54,7.15l-3.38,38.61A8,8,0,0,1,355.48,237.35Z" style="fill: rgb(255, 255, 255); opacity: 0.4; transform-origin: 326.469px 210.89px;" class="animable"></path></g><g id="elc3nme6j7xhn"><path d="M355.24,234.5H293.56a4.21,4.21,0,0,1-4.26-4.67l3-33.87a5.2,5.2,0,0,1,5.08-4.67H359a4.21,4.21,0,0,1,4.26,4.67l-3,33.87A5.2,5.2,0,0,1,355.24,234.5Z" style="fill: rgb(255, 255, 255); opacity: 0.8; transform-origin: 326.28px 212.895px;" class="animable"></path></g><g id="el4a8e9znpqpc"><path d="M296.41,187.9a1.47,1.47,0,0,1-1.44,1.32,1.18,1.18,0,0,1-1.2-1.32,1.47,1.47,0,0,1,1.44-1.32A1.18,1.18,0,0,1,296.41,187.9Z" style="fill: rgb(255, 255, 255); opacity: 0.8; transform-origin: 295.09px 187.9px;" class="animable"></path></g><g id="el70x900rach5"><path d="M300.53,187.9a1.47,1.47,0,0,1-1.44,1.32,1.2,1.2,0,0,1-1.21-1.32,1.48,1.48,0,0,1,1.44-1.32A1.2,1.2,0,0,1,300.53,187.9Z" style="fill: rgb(255, 255, 255); opacity: 0.8; transform-origin: 299.205px 187.9px;" class="animable"></path></g><g id="el1r7omn75rsk"><path d="M304.65,187.9a1.48,1.48,0,0,1-1.44,1.32A1.2,1.2,0,0,1,302,187.9a1.48,1.48,0,0,1,1.44-1.32A1.2,1.2,0,0,1,304.65,187.9Z" style="fill: rgb(255, 255, 255); opacity: 0.8; transform-origin: 303.325px 187.9px;" class="animable"></path></g><g id="elgvo2atgzvev"><polygon points="321.47 224.92 299.28 224.92 301.39 200.87 323.57 200.87 321.47 224.92" style="opacity: 0.1; transform-origin: 311.425px 212.895px;" class="animable"></polygon></g><path d="M353.16,203.54H329.64a1.2,1.2,0,0,1-1.22-1.34h0a1.48,1.48,0,0,1,1.45-1.34h23.52a1.2,1.2,0,0,1,1.22,1.34h0A1.48,1.48,0,0,1,353.16,203.54Z" style="fill: rgb(16, 30, 174); transform-origin: 341.515px 202.2px;" id="elpao13rfis5j" class="animable"></path><path d="M348.68,208.88H329.17a1.2,1.2,0,0,1-1.22-1.33h0a1.48,1.48,0,0,1,1.45-1.34h19.51a1.2,1.2,0,0,1,1.22,1.34h0A1.47,1.47,0,0,1,348.68,208.88Z" style="fill: rgb(16, 30, 174); transform-origin: 339.041px 207.545px;" id="elfiaq0bzmrdu" class="animable"></path><path d="M349.82,214.23H328.7a1.21,1.21,0,0,1-1.22-1.34h0a1.5,1.5,0,0,1,1.45-1.33h21.12a1.21,1.21,0,0,1,1.22,1.33h0A1.49,1.49,0,0,1,349.82,214.23Z" style="fill: rgb(16, 30, 174); transform-origin: 339.374px 212.895px;" id="el88c9r0kxxvv" class="animable"></path><path d="M346.94,219.58H328.23a1.21,1.21,0,0,1-1.22-1.34h0a1.5,1.5,0,0,1,1.46-1.34h18.71a1.21,1.21,0,0,1,1.22,1.34h0A1.5,1.5,0,0,1,346.94,219.58Z" style="fill: rgb(16, 30, 174); transform-origin: 337.705px 218.24px;" id="els6mwn7zzzb" class="animable"></path><path d="M349.68,224.92H327.76a1.2,1.2,0,0,1-1.21-1.33h0a1.48,1.48,0,0,1,1.45-1.34h21.92a1.21,1.21,0,0,1,1.22,1.34h0A1.5,1.5,0,0,1,349.68,224.92Z" style="fill: rgb(16, 30, 174); transform-origin: 338.845px 223.585px;" id="eln08yjdzctjq" class="animable"></path><g id="elr9m8lafrn4i"><g style="opacity: 0.5; transform-origin: 340.581px 212.89px;" class="animable"><path d="M353.16,203.54H329.64a1.2,1.2,0,0,1-1.22-1.34h0a1.48,1.48,0,0,1,1.45-1.34h23.52a1.2,1.2,0,0,1,1.22,1.34h0A1.48,1.48,0,0,1,353.16,203.54Z" style="fill: rgb(255, 255, 255); transform-origin: 341.515px 202.2px;" id="elkgk08fmv3y" class="animable"></path><path d="M348.68,208.88H329.17a1.2,1.2,0,0,1-1.22-1.33h0a1.48,1.48,0,0,1,1.45-1.34h19.51a1.2,1.2,0,0,1,1.22,1.34h0A1.47,1.47,0,0,1,348.68,208.88Z" style="fill: rgb(255, 255, 255); transform-origin: 339.041px 207.545px;" id="elaop254tp7g" class="animable"></path><path d="M349.82,214.23H328.7a1.21,1.21,0,0,1-1.22-1.34h0a1.5,1.5,0,0,1,1.45-1.33h21.12a1.21,1.21,0,0,1,1.22,1.33h0A1.49,1.49,0,0,1,349.82,214.23Z" style="fill: rgb(255, 255, 255); transform-origin: 339.374px 212.895px;" id="elgdx78ppks3" class="animable"></path><path d="M346.94,219.58H328.23a1.21,1.21,0,0,1-1.22-1.34h0a1.5,1.5,0,0,1,1.46-1.34h18.71a1.21,1.21,0,0,1,1.22,1.34h0A1.5,1.5,0,0,1,346.94,219.58Z" style="fill: rgb(255, 255, 255); transform-origin: 337.705px 218.24px;" id="eljxk7mazxbal" class="animable"></path><path d="M349.68,224.92H327.76a1.2,1.2,0,0,1-1.21-1.33h0a1.48,1.48,0,0,1,1.45-1.34h21.92a1.21,1.21,0,0,1,1.22,1.34h0A1.5,1.5,0,0,1,349.68,224.92Z" style="fill: rgb(255, 255, 255); transform-origin: 338.845px 223.585px;" id="el9q3i3dzc42r" class="animable"></path></g></g><path d="M316.25,207h0a4.1,4.1,0,0,0-5.8,0l-2.08,2.09L306.28,207a4.1,4.1,0,0,0-5.8,5.8l7.89,7.88,7.88-7.88A4.1,4.1,0,0,0,316.25,207Z" style="fill: rgb(16, 30, 174); transform-origin: 308.368px 213.239px;" id="el1wu5dispjbr" class="animable"></path><path d="M306.7,181.15H274.17a3.36,3.36,0,0,1-3.39-3.72l1.75-20a4.13,4.13,0,0,1,4-3.71H309.1a3.35,3.35,0,0,1,3.39,3.71l-1.75,20A4.14,4.14,0,0,1,306.7,181.15Z" style="fill: rgb(16, 30, 174); transform-origin: 291.635px 167.435px;" id="elmq9s2mnvlz" class="animable"></path><g id="el3gn3xm5rakb"><path d="M306.7,181.15H274.17a3.36,3.36,0,0,1-3.39-3.72l1.75-20a4.13,4.13,0,0,1,4-3.71H309.1a3.35,3.35,0,0,1,3.39,3.71l-1.75,20A4.14,4.14,0,0,1,306.7,181.15Z" style="fill: rgb(255, 255, 255); opacity: 0.4; transform-origin: 291.635px 167.435px;" class="animable"></path></g><g id="elwjxuxkdvxe"><path d="M306.57,179.67h-32a2.2,2.2,0,0,1-2.22-2.43l1.54-17.58a2.7,2.7,0,0,1,2.64-2.42h32a2.19,2.19,0,0,1,2.22,2.42l-1.54,17.58A2.71,2.71,0,0,1,306.57,179.67Z" style="fill: rgb(255, 255, 255); opacity: 0.8; transform-origin: 291.55px 168.455px;" class="animable"></path></g><g id="ell0gaet1xkdh"><path d="M276,155.48a.77.77,0,0,1-.75.69.63.63,0,0,1-.63-.69.77.77,0,0,1,.75-.69A.63.63,0,0,1,276,155.48Z" style="fill: rgb(255, 255, 255); opacity: 0.8; transform-origin: 275.31px 155.48px;" class="animable"></path></g><g id="el5mb4l64990s"><path d="M278.17,155.48a.76.76,0,0,1-.74.69.63.63,0,0,1-.63-.69.77.77,0,0,1,.75-.69A.61.61,0,0,1,278.17,155.48Z" style="fill: rgb(255, 255, 255); opacity: 0.8; transform-origin: 277.486px 155.48px;" class="animable"></path></g><g id="elfszxvfxc0np"><path d="M280.31,155.48a.77.77,0,0,1-.75.69.61.61,0,0,1-.62-.69.76.76,0,0,1,.74-.69A.63.63,0,0,1,280.31,155.48Z" style="fill: rgb(255, 255, 255); opacity: 0.8; transform-origin: 279.624px 155.48px;" class="animable"></path></g></g><g id="freepik--Document--inject-151" class="animable" style="transform-origin: 361.21px 125.39px;"><polygon points="374.2 107.73 352.17 102.59 343.1 141.5 371.8 148.19 379.32 115.97 374.2 107.73" style="fill: rgb(16, 30, 174); transform-origin: 361.21px 125.39px;" id="ellce7cr7cuy" class="animable"></polygon><g id="eltqg1etp0l7c"><polygon points="374.2 107.73 352.17 102.59 343.1 141.5 371.8 148.19 379.32 115.97 374.2 107.73" style="fill: rgb(255, 255, 255); opacity: 0.5; transform-origin: 361.21px 125.39px;" class="animable"></polygon></g><g id="eljpid2ftj9dg"><polygon points="374.2 107.73 372.64 114.41 379.32 115.97 374.2 107.73" style="fill: rgb(255, 255, 255); opacity: 0.4; transform-origin: 375.98px 111.85px;" class="animable"></polygon></g><path d="M372,120.91,355,117a.86.86,0,0,1-.64-1h0a.86.86,0,0,1,1-.64l16.94,4a.86.86,0,0,1,.64,1h0A.86.86,0,0,1,372,120.91Z" style="fill: rgb(16, 30, 174); transform-origin: 363.65px 118.132px;" id="elt3u9rt9a9i" class="animable"></path><path d="M368,123.51l-13.78-3.22a.86.86,0,0,1-.64-1h0a.84.84,0,0,1,1-.63l13.79,3.21a.86.86,0,0,1,.64,1h0A.87.87,0,0,1,368,123.51Z" style="fill: rgb(16, 30, 174); transform-origin: 361.295px 121.083px;" id="el6yjfb79ujj" class="animable"></path><path d="M367.56,126.9l-14.09-3.28a.87.87,0,0,1-.64-1h0a.87.87,0,0,1,1-.64L368,125.24a.87.87,0,0,1,.64,1h0A.85.85,0,0,1,367.56,126.9Z" style="fill: rgb(16, 30, 174); transform-origin: 360.735px 124.451px;" id="el5uevqfuz4d9" class="animable"></path><path d="M369.63,130.9l-16.94-4a.85.85,0,0,1-.63-1h0a.84.84,0,0,1,1-.64L370,129.23a.86.86,0,0,1,.64,1h0A.87.87,0,0,1,369.63,130.9Z" style="fill: rgb(16, 30, 174); transform-origin: 361.349px 128.078px;" id="elq176nob81l9" class="animable"></path><path d="M365.71,133.49l-13.79-3.22a.84.84,0,0,1-.64-1h0a.86.86,0,0,1,1-.64l13.78,3.21a.86.86,0,0,1,.64,1h0A.84.84,0,0,1,365.71,133.49Z" style="fill: rgb(16, 30, 174); transform-origin: 358.988px 131.061px;" id="elhcyr43hyyje" class="animable"></path><path d="M365.23,136.89l-14.09-3.29a.87.87,0,0,1-.64-1h0a.86.86,0,0,1,1-.63l14.09,3.28a.86.86,0,0,1,.64,1h0A.87.87,0,0,1,365.23,136.89Z" style="fill: rgb(16, 30, 174); transform-origin: 358.366px 134.429px;" id="el3yhf8vpgyzm" class="animable"></path></g><g id="freepik--speech-bubble--inject-151" class="animable" style="transform-origin: 131.476px 103.735px;"><path d="M149.2,94.63a18.54,18.54,0,1,0-16,23.89l6.24,7.43,1-9.65A18.53,18.53,0,0,0,149.2,94.63Z" style="fill: rgb(16, 30, 174); transform-origin: 131.476px 103.735px;" id="el3wdx3rrlkh8" class="animable"></path><path d="M136.78,95.83l-.84,4.82,3.53-.75-.23,3.17-3.89.83-.85,4.76-3.18.68.85-4.77-3.94.84-.85,4.76-3.15.67.85-4.76-3.54.75.2-3.16,3.92-.84.87-4.82-3.53.75.22-3.17,3.9-.82L128,90l3.15-.67-.85,4.77,3.94-.84.85-4.77,3.15-.67-.85,4.77,3.57-.76L140.72,95Zm-3.15.67-3.95.84-.87,4.83,3.95-.84Z" style="fill: rgb(255, 255, 255); transform-origin: 131.25px 99.33px;" id="eln73r81iss2" class="animable"></path></g><g id="freepik--Photo--inject-151" class="animable" style="transform-origin: 113.49px 279.53px;"><g id="elfdp6q0h47c8"><rect x="85.89" y="261.4" width="55.15" height="36.26" style="fill: rgb(16, 30, 174); transform-origin: 113.465px 279.53px; transform: rotate(12deg);" class="animable"></rect></g><g id="elq2avtxjxw4p"><rect x="85.89" y="261.4" width="55.15" height="36.26" style="fill: rgb(255, 255, 255); opacity: 0.6; transform-origin: 113.465px 279.53px; transform: rotate(12deg);" class="animable"></rect></g><polygon points="104.61 279.32 85.05 292.02 117.31 298.88 104.61 279.32" style="fill: rgb(16, 30, 174); transform-origin: 101.18px 289.1px;" id="elmflx5wg797g" class="animable"></polygon><g id="elef3pfreh21u"><polygon points="104.61 279.32 85.05 292.02 117.31 298.88 104.61 279.32" style="fill: rgb(255, 255, 255); opacity: 0.3; transform-origin: 101.18px 289.1px;" class="animable"></polygon></g><polygon points="136.12 302.88 125.92 272.17 104.11 296.07 136.12 302.88" style="fill: rgb(16, 30, 174); transform-origin: 120.115px 287.525px;" id="elm48lrhipqr" class="animable"></polygon><g id="el3x6vraou88"><circle cx="110.56" cy="272.24" r="3.31" style="fill: rgb(255, 255, 255); opacity: 0.8; transform-origin: 110.56px 272.24px; transform: rotate(-33deg);" class="animable"></circle></g><path d="M137.44,304.18,81.54,292.3l8-37.42,55.9,11.88ZM83.91,290.76l52,11.05L143,268.3,91,257.25Z" style="fill: rgb(16, 30, 174); transform-origin: 113.49px 279.53px;" id="el1n1u85z3wnw" class="animable"></path></g><g id="freepik--Icons--inject-151" class="animable" style="transform-origin: 234.811px 197.115px;"><g id="el3a0jb7c9e1m"><circle cx="372.64" cy="279.72" r="20.8" style="fill: rgb(16, 30, 174); transform-origin: 372.64px 279.72px; transform: rotate(-22.5deg);" class="animable"></circle></g><g id="elbjaybni7ett"><circle cx="372.64" cy="279.72" r="20.8" style="fill: rgb(255, 255, 255); opacity: 0.6; transform-origin: 372.64px 279.72px; transform: rotate(-22.5deg);" class="animable"></circle></g><path d="M382.29,274.83a5.22,5.22,0,0,0-1.59-3.35,5.43,5.43,0,0,0-3.6-1.45,70.69,70.69,0,0,0-9.7.1,5,5,0,0,0-4.24,3.81c-.47,1.67-.38,9.36-.1,11a5,5,0,0,0,3.94,4.28c1.55.4,9.15.35,10.86.07a5,5,0,0,0,4.29-3.92C382.6,283.67,382.44,276.38,382.29,274.83Zm-1.81,9.8a3.32,3.32,0,0,1-3.12,3c-1.58.17-8.65.26-10.12-.15a3.22,3.22,0,0,1-2.44-2.77,66.55,66.55,0,0,1,0-9.89,3.32,3.32,0,0,1,3.11-3,67.52,67.52,0,0,1,9.65,0,3.32,3.32,0,0,1,3,3.12A68.84,68.84,0,0,1,380.48,284.63Zm-7.84-9.94a5,5,0,1,0,5,5A5,5,0,0,0,372.64,274.69Zm0,8.28a3.26,3.26,0,1,1,3.28-3.24A3.25,3.25,0,0,1,372.61,283ZM379,274.5a1.18,1.18,0,1,1-1.17-1.18A1.17,1.17,0,0,1,379,274.5Z" style="fill: rgb(16, 30, 174); transform-origin: 372.637px 279.71px;" id="eld43hw9y7m0s" class="animable"></path><path d="M293.33,109.15a7.07,7.07,0,0,1-6.56-4.89,6.84,6.84,0,0,0,3-.09s0,0,.1,0a7.07,7.07,0,0,1-4.57-3.24,6.76,6.76,0,0,1-1-3.74,6.92,6.92,0,0,0,3.13.85,7.09,7.09,0,0,1-2.14-9.37A20.13,20.13,0,0,0,299.8,96c0-.28-.08-.52-.11-.77a6.86,6.86,0,0,1,1-4.61,6.77,6.77,0,0,1,4.78-3.18,6.87,6.87,0,0,1,6.16,2,.36.36,0,0,0,.38.12,14.34,14.34,0,0,0,4.09-1.58.31.31,0,0,1,.1-.05h0a7.21,7.21,0,0,1-3,3.83,13.71,13.71,0,0,0,3.92-1l0,0c-.27.35-.53.71-.81,1a14.43,14.43,0,0,1-2.56,2.44.24.24,0,0,0-.12.22,19.12,19.12,0,0,1-.13,3.12A21,21,0,0,1,308,109.35a18.84,18.84,0,0,1-9.68,5.39,21.53,21.53,0,0,1-3.92.47,19.83,19.83,0,0,1-11.27-3,1.5,1.5,0,0,1-.17-.11,14.19,14.19,0,0,0,10.4-2.92Z" style="fill: rgb(16, 30, 174); fill-rule: evenodd; mix-blend-mode: multiply; transform-origin: 300.04px 101.279px;" id="eluh1rctorvvc" class="animable"></path><g id="el4zcu3mkfby3"><circle cx="90.72" cy="215.88" r="18.23" style="fill: rgb(16, 30, 174); transform-origin: 90.72px 215.88px; transform: rotate(-80.78deg);" class="animable"></circle></g><g id="elga70ypy09yj"><circle cx="90.72" cy="215.88" r="18.23" style="fill: rgb(255, 255, 255); opacity: 0.6; transform-origin: 90.72px 215.88px; transform: rotate(-80.78deg);" class="animable"></circle></g><path d="M93.79,209.33c.62,0,1.23,0,1.84,0h.26v-3.18c-.33,0-.67-.08-1-.1-.62,0-1.25-.06-1.88,0a4.57,4.57,0,0,0-2.67.82,4,4,0,0,0-1.6,2.66,8.94,8.94,0,0,0-.11,1.37c0,.71,0,1.43,0,2.14v.27h-3v3.56h3v9H92.3v-8.93h3c.16-1.19.31-2.36.46-3.58H92.27s0-1.76,0-2.53C92.33,209.68,93,209.36,93.79,209.33Z" style="fill: rgb(16, 30, 174); fill-rule: evenodd; transform-origin: 90.76px 215.947px;" id="elicofaogvri" class="animable"></path></g><g id="freepik--Character--inject-151" class="animable" style="transform-origin: 261.853px 283.888px;"><path d="M230.27,197s3.31-2.29,5.58.35.85,8.52.85,8.52l-5.31-6.44Z" style="fill: rgb(38, 50, 56); transform-origin: 233.704px 200.974px;" id="elwdyw5cccybg" class="animable"></path><path d="M302.41,232.47l-6.64-.35a149.24,149.24,0,0,1-4.4,16.15,35.38,35.38,0,0,1-1.46,3.48,9.61,9.61,0,0,1-1.57,2.45c-.22.25-.26.11-.33.12a10.63,10.63,0,0,1-2.35,0,39.08,39.08,0,0,1-7.23-1.65c-2.55-.78-5.15-1.72-7.73-2.75s-5.18-2.12-7.77-3.23-5.2-2.36-7.64-3.5l-6.06,12c2.8,1.47,5.48,2.68,8.27,3.91s5.61,2.34,8.49,3.39,5.84,2,8.93,2.77a48.88,48.88,0,0,0,10,1.61,20.46,20.46,0,0,0,6.37-.7,13.2,13.2,0,0,0,2-.77,6.94,6.94,0,0,0,1-.58,11,11,0,0,0,1-.69,12.73,12.73,0,0,0,2.63-2.9,22.09,22.09,0,0,0,2.49-5.3A34.88,34.88,0,0,0,301.6,251a63,63,0,0,0,1-9.33A72.51,72.51,0,0,0,302.41,232.47Z" style="fill: rgb(128, 62, 60); transform-origin: 275.948px 249.507px;" id="elumx0wvomwyq" class="animable"></path><path d="M240.62,255.06c3.87,7.94,32.19,13.06,32.19,13.06l5.27-20.38s-11.71-5.16-22.9-7C243.7,238.86,236.37,246.35,240.62,255.06Z" style="fill: rgb(16, 30, 174); transform-origin: 258.74px 254.284px;" id="elrpmi1w4dx6s" class="animable"></path><path d="M295.74,232.46,297.49,221l8.39,6.17s-2.06,10.37-6.21,9.13Z" style="fill: rgb(127, 62, 59); transform-origin: 300.81px 228.701px;" id="eln67xqww5adf" class="animable"></path><polygon points="303.73 214.1 309.14 221.85 305.88 227.17 297.49 221 303.73 214.1" style="fill: rgb(127, 62, 59); transform-origin: 303.315px 220.635px;" id="elq42ybakknvh" class="animable"></polygon><g id="elryxw8vn00z"><path d="M258.74,249.85l-4.05,1.45-.84,3,.56,4.82,3.72,5.45c5,1.51,9.83,2.58,12.5,3.14C266.26,259,258.74,249.85,258.74,249.85Z" style="opacity: 0.2; transform-origin: 262.24px 258.78px;" class="animable"></path></g><path d="M220.64,317s-.4,32.66,29.23,25.89c28.24-6.45,19.33-38.07,19.33-38.07Z" style="fill: rgb(38, 50, 56); transform-origin: 245.587px 324.317px;" id="elpwu9wyqb4bg" class="animable"></path><path d="M249.87,339.14c-9.72-7.93-38.52-27.14-48.52-12.76-11.17,16.05,14.36,55.28,56.83,40.58C265,364.58,271,356.41,249.87,339.14Z" style="fill: rgb(38, 50, 56); transform-origin: 231.625px 345.692px;" id="elfjhi12294w" class="animable"></path><path d="M285.93,317c41.33-7.38,43.68,5.13,36.57,15.73s-30.69,35.54-72.63,32.88C234.28,364.6,234,326.23,285.93,317Z" style="fill: rgb(38, 50, 56); transform-origin: 283.158px 340.294px;" id="elejp78uvmvn" class="animable"></path><g id="el4g48v6v7ql6"><path d="M255.91,342.87A42.26,42.26,0,0,1,261,334.4c2.91-3.48,3.26,6.55,16,0s21.7-13.58,31.58-16.19-7.6,15.22-7.6,15.22l-31,17Z" style="opacity: 0.2; transform-origin: 283.758px 334.19px;" class="animable"></path></g><polygon points="256.69 365.09 241.38 370.96 242.67 363.23 255.3 354.97 256.69 365.09" style="fill: rgb(127, 62, 59); transform-origin: 249.035px 362.965px;" id="elluqwdzp37d9" class="animable"></polygon><path d="M331.55,324.06c-1.24-8.79-15.58-12.3-27.58-2.87-9.86,7.75-45.14,30.65-56.53,38.12l2.41,9.27c10.47-4,31-11.78,45.77-17.45C316.18,343.22,332.8,332.85,331.55,324.06Z" style="fill: rgb(38, 50, 56); transform-origin: 289.528px 342.084px;" id="elp5y8hvov09" class="animable"></path><g id="elk75l8egyde"><path d="M248.08,337.72c-5.08-10.78-15.89-12.89-22-13.18A106.05,106.05,0,0,1,248.08,337.72Z" style="opacity: 0.2; transform-origin: 237.08px 331.13px;" class="animable"></path></g><g id="elex0uun1oedd"><path d="M266.49,362.26c9.54-3.63,20.36-7.75,29.13-11.13l1-.39L271.16,344c-8.62,5.76-16.67,11.06-21.29,14.09Z" style="opacity: 0.2; transform-origin: 273.245px 353.13px;" class="animable"></path></g><g id="el8scle0h471e"><path d="M205.34,343.61s33.14,28.07,45.27,10.08l-40.05-15.24-4.49-2Z" style="opacity: 0.2; transform-origin: 227.975px 348.079px;" class="animable"></path></g><polygon points="290.69 362.84 306.1 364.83 304.48 356.31 288.69 352.2 290.69 362.84" style="fill: rgb(127, 62, 59); transform-origin: 297.395px 358.515px;" id="el2wjk9j2cf5x" class="animable"></polygon><path d="M301.07,354c-7.55-1.94-24.68-6.24-35.26-10.37-14.27-5.58-50.64-20.67-62.63-13.6-8.3,4.88.29,12.13.29,12.13s3.88,6.7,34.28,13.1c21.73,4.57,48.6,8,62.16,9.55Z" style="fill: rgb(38, 50, 56); transform-origin: 250.317px 346.495px;" id="elwv8qj5l12de" class="animable"></path><path d="M304.92,365.1l-2.31-9.49a.81.81,0,0,1,.42-.89l7.3-3.59a1.3,1.3,0,0,1,1.75.59,1.17,1.17,0,0,1,.1.26c.77,3.43,1.32,6.52,2.36,10.77,1.22,5,1.51,3.6,3,9.49.92,3.55-3,5.18-3.54,3.72-2.54-6.69-4.8-6.9-7.92-9A3.11,3.11,0,0,1,304.92,365.1Z" style="fill: rgb(16, 30, 174); transform-origin: 310.136px 363.743px;" id="elwu7bvk67tbe" class="animable"></path><path d="M243.92,370.14l1.68-9.65a.79.79,0,0,0-.47-.86l-7.54-3.11a1.32,1.32,0,0,0-1.72.7,1.38,1.38,0,0,0-.08.27c-.54,3.48-.89,6.61-1.65,10.93-.89,5.11-1.28,3.71-2.41,9.7-.67,3.61,3.32,5,3.79,3.48,2.11-6.86,4.35-7.22,7.34-9.49A3.18,3.18,0,0,0,243.92,370.14Z" style="fill: rgb(16, 30, 174); transform-origin: 238.633px 369.314px;" id="elaxmnu93tvch" class="animable"></path><path d="M217.74,299.25c1.52,8.72,2.49,16.62,3.21,22.3,8.26-.37,39.25-2,50.47-6.23-1.61-47-16.54-74.94-16.54-74.94a96.48,96.48,0,0,0-11.84.08c-.83.06-1.68.14-2.53.23A184,184,0,0,0,220,244.85c-1.28.33-2.58.69-3.83,1.06-6.4,1.92-11.95,4.27-11.95,4.27a205.76,205.76,0,0,1,9.44,29.31C215.34,286.46,216.67,293.16,217.74,299.25Z" style="fill: rgb(16, 30, 174); transform-origin: 237.82px 280.893px;" id="elkqum4wa2xop" class="animable"></path><path d="M217.55,221.3c2.57,6.35,6.19,18.2,2.42,23.55a20.71,20.71,0,0,0,17,3.09c5.67-1.27,5.19-5.3,3.5-7.25-7.71-.27-8.57-5.78-8.28-11.17Z" style="fill: rgb(127, 62, 59); transform-origin: 229.576px 234.943px;" id="el6uzasz3yyym" class="animable"></path><path d="M237.16,247.91s-1.59,3.19-3.56,6.42c-4.15-1.19-14-4.65-14.69-9.63a5,5,0,0,1,1.9-2.81A54.38,54.38,0,0,0,237.16,247.91Z" style="fill: rgb(255, 255, 255); transform-origin: 228.035px 248.11px;" id="elhmaqy1lozwb" class="animable"></path><path d="M237.16,247.91a26.49,26.49,0,0,1,6,4.38c2.3-2.44-1.16-11.25-2.39-12a6.42,6.42,0,0,0-3.9-.44S241.22,245.94,237.16,247.91Z" style="fill: rgb(255, 255, 255); transform-origin: 240.401px 246.007px;" id="eldi6hp649a59" class="animable"></path><g id="el7thkaitjn7y"><path d="M223.54,224.65l8.69,4.86a21.6,21.6,0,0,0,.06,3.78c-2.89.16-7.35-2.15-8.22-5A10,10,0,0,1,223.54,224.65Z" style="opacity: 0.2; transform-origin: 227.911px 228.974px;" class="animable"></path></g><path d="M213.19,213.45c3.36,8.49,4.89,13.63,10.71,16.61,8.76,4.47,18.14-3.1,17.38-12.45-.68-8.41-6.05-20.88-15.65-21.47A12.59,12.59,0,0,0,213.19,213.45Z" style="fill: rgb(127, 62, 59); transform-origin: 226.793px 213.748px;" id="el4db87c8ylgt" class="animable"></path><path d="M227.1,211.45c.23.7.79,1.15,1.25,1s.65-.85.42-1.55-.79-1.16-1.25-1S226.87,210.74,227.1,211.45Z" style="fill: rgb(38, 50, 56); transform-origin: 227.935px 211.174px;" id="elb64co7ta3e8" class="animable"></path><path d="M235.06,208.76c.23.71.79,1.15,1.26,1s.64-.85.41-1.56-.79-1.15-1.25-1S234.83,208.06,235.06,208.76Z" style="fill: rgb(38, 50, 56); transform-origin: 235.897px 208.48px;" id="el0oubdmjbi9h" class="animable"></path><path d="M232.65,210a25.8,25.8,0,0,0,5.32,4.67c-.87,1.51-3.17,1.69-3.17,1.69Z" style="fill: rgb(99, 15, 15); transform-origin: 235.31px 213.18px;" id="el5dug1a2qrdm" class="animable"></path><path d="M231.91,220.31a7.77,7.77,0,0,0,.94-.25.24.24,0,0,0,.14-.28.22.22,0,0,0-.28-.14,5.81,5.81,0,0,1-5.26-.65.21.21,0,0,0-.31,0,.21.21,0,0,0,0,.3A6,6,0,0,0,231.91,220.31Z" style="fill: rgb(38, 50, 56); transform-origin: 230.037px 219.68px;" id="elslytbby1tcf" class="animable"></path><path d="M223.81,209.7a.44.44,0,0,0,.33-.29,3.5,3.5,0,0,1,2.2-2.28.45.45,0,0,0,.32-.53.44.44,0,0,0-.53-.32,4.4,4.4,0,0,0-2.81,2.85.42.42,0,0,0,.27.55A.42.42,0,0,0,223.81,209.7Z" style="fill: rgb(38, 50, 56); transform-origin: 224.982px 207.987px;" id="eley6crurhmo" class="animable"></path><path d="M237.6,204.86a.35.35,0,0,0,.22-.12.43.43,0,0,0,0-.61,4.29,4.29,0,0,0-3.74-1.33.43.43,0,0,0-.34.51.42.42,0,0,0,.5.34,3.36,3.36,0,0,1,3,1.09A.41.41,0,0,0,237.6,204.86Z" style="fill: rgb(38, 50, 56); transform-origin: 235.839px 203.812px;" id="elue14gyml95n" class="animable"></path><g id="el393kp2uhjs6"><path d="M209.68,265.39c1.49,4.76,2.8,9.49,3.94,14.1,1.25,5.08,2.3,10,3.19,14.67,1.64-9.43.64-30.4.64-30.4l-5.17-5A36,36,0,0,0,209.68,265.39Z" style="opacity: 0.2; transform-origin: 213.716px 276.46px;" class="animable"></path></g><path d="M234.1,299.88l-4.63.52c-1.56.15-3.12.27-4.66.39a90,90,0,0,1-9.06.27,33.4,33.4,0,0,1-4.14-.36,11.65,11.65,0,0,1-3.2-.84c-.37-.17-.39-.27-.38-.25s0,0,0,0l0-.14c0-.13-.08-.31-.12-.51a13,13,0,0,1-.19-1.53,46.64,46.64,0,0,1,.32-8.26c.35-2.95.8-6,1.38-9,1.1-6,2.49-12.27,3.94-18.2l-13.47-3.65c-.95,3.32-1.66,6.47-2.38,9.74s-1.3,6.52-1.82,9.83-.91,6.69-1.11,10.16a53.15,53.15,0,0,0,.31,11,24,24,0,0,0,.71,3.21,16.76,16.76,0,0,0,.63,1.79c.13.32.27.63.44,1l.26.51.35.59a11.9,11.9,0,0,0,3.59,3.56,14.54,14.54,0,0,0,3.67,1.64,23.64,23.64,0,0,0,6.28.9,42.77,42.77,0,0,0,5.52-.3A77.54,77.54,0,0,0,236,306.53Z" style="fill: rgb(128, 62, 60); transform-origin: 215.214px 285.286px;" id="el86771590im7" class="animable"></path><path d="M201.7,251.52c-7.23,5.08-9.61,31.31-9.61,31.31l22.42,2.72a129,129,0,0,0,3-23.07C217.76,250.05,210.45,245.36,201.7,251.52Z" style="fill: rgb(16, 30, 174); transform-origin: 204.803px 267.186px;" id="el3hmmh5xxk55" class="animable"></path><path d="M231.82,300.17l6.57-6.64,4.09,11.09s-6.84,4.39-9.56,1Z" style="fill: rgb(127, 62, 59); transform-origin: 237.15px 300.217px;" id="elyb9kl9zftyg" class="animable"></path><polygon points="245.98 292.55 248.94 301.87 242.48 304.62 238.39 293.53 245.98 292.55" style="fill: rgb(127, 62, 59); transform-origin: 243.665px 298.585px;" id="el3w30racnnm8" class="animable"></polygon><path d="M218.91,221l.58-.1a2,2,0,0,0,1.08-3.27,10.62,10.62,0,0,1-2.82-5.7c-.71-5.32,2.19-6.06,1.81-9.7,0,0,7.24-.95,11.83-4.11,0,0,4.51-6.53.9-9.61-3-2.59-6.69.94-6.69.94s-1.56-4.76-5.29-3.74-5.26,6.15-5.26,6.15-3.6-4-6.31-2-1.75,7.22-1.75,7.22-5.62.15-5.81,3.42,3.18,6.16,3.18,6.16-3.36,3.14-2.43,5.76,4,2.9,4,2.9-2.11,4.47-.62,5.93,4.39,1.08,4.39,1.08.09,4.29,3.54,5.51a4.22,4.22,0,0,0,4.15-.72s1.7,2.49,2.77,1.8S218.91,221,218.91,221Z" style="fill: rgb(38, 50, 56); transform-origin: 217.431px 207.304px;" id="el96u8c1l27b8" class="animable"></path><path d="M210.68,225.76c2-2.64,8.15-10.56,11.81-11.28,0,0-1.56-1.24-2.41-7.15a26.32,26.32,0,0,1-3.77,5.29,81.24,81.24,0,0,0-8.06,9.78A9.09,9.09,0,0,0,210.68,225.76Z" style="fill: rgb(16, 30, 174); transform-origin: 215.37px 216.545px;" id="elc5uk84y5cs" class="animable"></path><g id="el6rkovcijlvp"><path d="M210.68,225.76c2-2.64,8.15-10.56,11.81-11.28,0,0-1.56-1.24-2.41-7.15a26.32,26.32,0,0,1-3.77,5.29,81.24,81.24,0,0,0-8.06,9.78A9.09,9.09,0,0,0,210.68,225.76Z" style="fill: rgb(255, 255, 255); opacity: 0.6; transform-origin: 215.37px 216.545px;" class="animable"></path></g><path d="M212.2,221.76a8.61,8.61,0,0,0,5.63,3.45c3,.44,4.15-2.36,3-5-1-2.38-3.81-5.48-6.68-4.71S210.58,219.47,212.2,221.76Z" style="fill: rgb(127, 62, 59); transform-origin: 216.307px 220.318px;" id="el4rxmyum40ls" class="animable"></path><path d="M223,215.37s6.53,2.68,11.67-2.22c0,0,5.34,1.44,7-1.46l-1.62-.52-16.25,3.55Z" style="fill: rgb(16, 30, 174); transform-origin: 232.335px 213.636px;" id="elqnuxi0xn7oq" class="animable"></path><path d="M239.17,201l-17.53,3.66a2.44,2.44,0,0,0-1.53,1.05l-.43.64a2.46,2.46,0,0,0-.34,1.83l1.23,5.88a2.43,2.43,0,0,0,2.87,1.88L241,212.29a2.4,2.4,0,0,0,1.53-1l.42-.64a2.44,2.44,0,0,0,.35-1.82L242,202.89A2.43,2.43,0,0,0,239.17,201Z" style="fill: rgb(16, 30, 174); transform-origin: 231.319px 208.474px;" id="elx5txcmfirq" class="animable"></path><g id="elag46eg76b44"><path d="M239.17,201l-17.53,3.66a2.44,2.44,0,0,0-1.53,1.05l-.43.64a2.46,2.46,0,0,0-.34,1.83l1.23,5.88a2.43,2.43,0,0,0,2.87,1.88L241,212.29a2.4,2.4,0,0,0,1.53-1l.42-.64a2.44,2.44,0,0,0,.35-1.82L242,202.89A2.43,2.43,0,0,0,239.17,201Z" style="fill: rgb(255, 255, 255); opacity: 0.3; transform-origin: 231.319px 208.474px;" class="animable"></path></g><g id="elgdcofu7fwv"><rect x="222.38" y="202.93" width="20.04" height="9.44" rx="2.45" style="fill: rgb(255, 255, 255); opacity: 0.2; transform-origin: 232.4px 207.65px; transform: rotate(-11.79deg);" class="animable"></rect></g></g><defs>     <filter id="active" height="200%">         <feMorphology in="SourceAlpha" result="DILATED" operator="dilate" radius="2"></feMorphology>                <feFlood flood-color="#32DFEC" flood-opacity="1" result="PINK"></feFlood>        <feComposite in="PINK" in2="DILATED" operator="in" result="OUTLINE"></feComposite>        <feMerge>            <feMergeNode in="OUTLINE"></feMergeNode>            <feMergeNode in="SourceGraphic"></feMergeNode>        </feMerge>    </filter>    <filter id="hover" height="200%">        <feMorphology in="SourceAlpha" result="DILATED" operator="dilate" radius="2"></feMorphology>                <feFlood flood-color="#ff0000" flood-opacity="0.5" result="PINK"></feFlood>        <feComposite in="PINK" in2="DILATED" operator="in" result="OUTLINE"></feComposite>        <feMerge>            <feMergeNode in="OUTLINE"></feMergeNode>            <feMergeNode in="SourceGraphic"></feMergeNode>        </feMerge>            <feColorMatrix type="matrix" values="0   0   0   0   0                0   1   0   0   0                0   0   0   0   0                0   0   0   1   0 "></feColorMatrix>    </filter></defs></svg>